<svg xmlns="http://www.w3.org/2000/svg" xmlns:ns1="http://sodipodi.sourceforge.net/DTD/sodipodi-0.dtd" xmlns:ns2="http://www.inkscape.org/namespaces/inkscape" version="1.1" id="svg1" width="900" height="330" viewBox="0 0 900 330" ns1:docname="v1_keyboard_with_CLK.svg" ns2:version="1.4 (86a8ad7, 2024-10-11)" xml:space="preserve"><ns1:namedview id="namedview1" pagecolor="#ffffff" bordercolor="#000000" borderopacity="0.25" ns2:showpageshadow="2" ns2:pageopacity="0.0" ns2:pagecheckerboard="0" ns2:deskcolor="#d1d1d1" ns2:zoom="2.1433192" ns2:cx="350.85768" ns2:cy="182.66061" ns2:window-width="2880" ns2:window-height="1514" ns2:window-x="2869" ns2:window-y="-11" ns2:window-maximized="1" ns2:current-layer="layer1" /><defs id="defs1"><clipPath clipPathUnits="userSpaceOnUse" id="clipPath7" /></defs><g ns2:groupmode="layer" id="layer1" ns2:label="LED Vector Layer" /><rect style="fill:none;stroke:#000000;stroke-width:1;stroke-opacity:1" id="rect1" width="65.11512843499999" height="18.579659216931216" x="413.40000000000003" y="13.8" ry="0" /><rect style="fill:none;stroke:#000000;stroke-width:1;stroke-opacity:1" id="rect2" width="29.92775797" height="13.848428952380955" x="77.10000000000001" y="62.400000000000006" ry="0" /><rect style="fill:none;stroke:#000000;stroke-width:1;stroke-opacity:1" id="rect3" width="29.92775797" height="13.848428952380955" x="117.5" y="62.400000000000006" ry="0" /><rect style="fill:none;stroke:#000000;stroke-width:1;stroke-opacity:1" id="rect4" width="29.92775797" height="13.848428952380955" x="158.20000000000002" y="62.400000000000006" ry="0" /><rect style="fill:none;stroke:#000000;stroke-width:1;stroke-opacity:1" id="rect5" width="29.92775797" height="13.848428952380955" x="198.60000000000002" y="62.400000000000006" ry="0" /><rect style="fill:none;stroke:#000000;stroke-width:1;stroke-opacity:1" id="rect6" width="29.92775797" height="13.848428952380955" x="261.40000000000003" y="62.400000000000006" ry="0" /><rect style="fill:none;stroke:#000000;stroke-width:1;stroke-opacity:1" id="rect7" width="29.92775797" height="13.848428952380955" x="301.8" y="62.400000000000006" ry="0" /><rect style="fill:none;stroke:#000000;stroke-width:1;stroke-opacity:1" id="rect8" width="29.92775797" height="13.848428952380955" x="342.5" y="62.400000000000006" ry="0" /><rect style="fill:none;stroke:#000000;stroke-width:1;stroke-opacity:1" id="rect9" width="29.92775797" height="13.848428952380955" x="382.90000000000003" y="62.400000000000006" ry="0" /><rect style="fill:none;stroke:#000000;stroke-width:1;stroke-opacity:1" id="rect10" width="29.92775797" height="13.848428952380955" x="444.40000000000003" y="62.400000000000006" ry="0" /><rect style="fill:none;stroke:#000000;stroke-width:1;stroke-opacity:1" id="rect11" width="29.92775797" height="13.848428952380955" x="484.8" y="62.400000000000006" ry="0" /><rect style="fill:none;stroke:#000000;stroke-width:1;stroke-opacity:1" id="rect12" width="29.92775797" height="13.848428952380955" x="525.5" y="62.400000000000006" ry="0" /><rect style="fill:none;stroke:#000000;stroke-width:1;stroke-opacity:1" id="rect13" width="29.92775797" height="13.848428952380955" x="565.9" y="62.400000000000006" ry="0" /><rect style="fill:none;stroke:#000000;stroke-width:1;stroke-opacity:1" id="rect14" width="29.92775797" height="13.848428952380955" x="613.5" y="62.400000000000006" ry="0" /><rect style="fill:none;stroke:#000000;stroke-width:1;stroke-opacity:1" id="rect15" width="29.92775797" height="13.848428952380955" x="654.2" y="62.400000000000006" ry="0" /><rect style="fill:none;stroke:#000000;stroke-width:1;stroke-opacity:1" id="rect16" width="29.92775797" height="13.848428952380955" x="694.6" y="62.400000000000006" ry="0" /><rect style="fill:none;stroke:#000000;stroke-width:1;stroke-opacity:1" id="rect17" width="50.398828675999994" height="13.598329121693123" x="6.4" y="62.5" ry="0" /><rect style="fill:none;stroke:#000000;stroke-width:1;stroke-opacity:1" id="rect18" width="18.997359318999997" height="12.502158153439154" x="745.8000000000001" y="63.800000000000004" ry="0" /><rect style="fill:none;stroke:#000000;stroke-width:1;stroke-opacity:1" id="rect19" width="20.835142905999998" height="12.48579803703704" x="783.9000000000001" y="63.800000000000004" ry="0" /><rect style="fill:none;stroke:#000000;stroke-width:1;stroke-opacity:1" id="rect20" width="19.794662241999998" height="12.494965724867725" x="822.9000000000001" y="63.800000000000004" ry="0" /><rect style="fill:none;stroke:#000000;stroke-width:1;stroke-opacity:1" id="rect21" width="20.149498921" height="12.491811206349208" x="859.7" y="63.800000000000004" ry="0" /><rect style="fill:none;stroke:#000000;stroke-width:1;stroke-opacity:1" id="rect22" width="15.542721366999999" height="12.098140772486774" x="794.7" y="107.0" ry="0" /><rect style="fill:none;stroke:#000000;stroke-width:1;stroke-opacity:1" id="rect23" width="17.646261451999997" height="9.467764774074075" x="831.6" y="107.0" ry="0" /><rect style="fill:none;stroke:#000000;stroke-width:1;stroke-opacity:1" id="rect24" width="20.802729945" height="9.453841512698414" x="867.6" y="107.0" ry="0" /><rect style="fill:none;stroke:#000000;stroke-width:1;stroke-opacity:1" id="rect25" width="30.070006468999996" height="13.4544257989418" x="9.5" y="107.10000000000001" ry="0" /><rect style="fill:none;stroke:#000000;stroke-width:1;stroke-opacity:1" id="rect26" width="30.070006468999996" height="13.4544257989418" x="50.2" y="107.10000000000001" ry="0" /><rect style="fill:none;stroke:#000000;stroke-width:1;stroke-opacity:1" id="rect27" width="24.597004510999998" height="13.489327661375663" x="91.9" y="107.10000000000001" ry="0" /><rect style="fill:none;stroke:#000000;stroke-width:1;stroke-opacity:1" id="rect28" width="24.597004510999998" height="13.489327661375663" x="131.0" y="107.10000000000001" ry="0" /><rect style="fill:none;stroke:#000000;stroke-width:1;stroke-opacity:1" id="rect29" width="24.597004510999998" height="13.489327661375663" x="170.5" y="107.10000000000001" ry="0" /><rect style="fill:none;stroke:#000000;stroke-width:1;stroke-opacity:1" id="rect30" width="24.597004510999998" height="13.489327661375663" x="209.5" y="107.10000000000001" ry="0" /><rect style="fill:none;stroke:#000000;stroke-width:1;stroke-opacity:1" id="rect31" width="24.597004510999998" height="13.489327661375663" x="248.8" y="107.10000000000001" ry="0" /><rect style="fill:none;stroke:#000000;stroke-width:1;stroke-opacity:1" id="rect32" width="24.597004510999998" height="13.489327661375663" x="289.90000000000003" y="107.10000000000001" ry="0" /><rect style="fill:none;stroke:#000000;stroke-width:1;stroke-opacity:1" id="rect33" width="24.597004510999998" height="13.489327661375663" x="328.20000000000005" y="107.10000000000001" ry="0" /><rect style="fill:none;stroke:#000000;stroke-width:1;stroke-opacity:1" id="rect34" width="24.597004510999998" height="13.489327661375663" x="367.6" y="107.10000000000001" ry="0" /><rect style="fill:none;stroke:#000000;stroke-width:1;stroke-opacity:1" id="rect35" width="24.597004510999998" height="13.489327661375663" x="407.1" y="107.10000000000001" ry="0" /><rect style="fill:none;stroke:#000000;stroke-width:1;stroke-opacity:1" id="rect36" width="24.597004510999998" height="13.489327661375663" x="448.0" y="107.10000000000001" ry="0" /><rect style="fill:none;stroke:#000000;stroke-width:1;stroke-opacity:1" id="rect37" width="24.597004510999998" height="13.489327661375663" x="487.5" y="107.10000000000001" ry="0" /><rect style="fill:none;stroke:#000000;stroke-width:1;stroke-opacity:1" id="rect38" width="24.597004510999998" height="13.489327661375663" x="547.8000000000001" y="107.10000000000001" ry="0" /><rect style="fill:none;stroke:#000000;stroke-width:1;stroke-opacity:1" id="rect39" width="24.597004510999998" height="13.489327661375663" x="615.7" y="107.10000000000001" ry="0" /><rect style="fill:none;stroke:#000000;stroke-width:1;stroke-opacity:1" id="rect40" width="24.597004510999998" height="13.489327661375663" x="655.2" y="107.10000000000001" ry="0" /><rect style="fill:none;stroke:#000000;stroke-width:1;stroke-opacity:1" id="rect41" width="24.597004510999998" height="13.489327661375663" x="696.8000000000001" y="107.10000000000001" ry="0" /><rect style="fill:none;stroke:#000000;stroke-width:1;stroke-opacity:1" id="rect42" width="18.653399221" height="12.029140417989419" x="752.3000000000001" y="107.10000000000001" ry="0" /><rect style="fill:none;stroke:#000000;stroke-width:1;stroke-opacity:1" id="rect43" width="30.067794077" height="14.137412751322753" x="16.3" y="151.4" ry="0" /><rect style="fill:none;stroke:#000000;stroke-width:1;stroke-opacity:1" id="rect44" width="24.595194279999998" height="14.17408560846561" x="72.2" y="151.4" ry="0" /><rect style="fill:none;stroke:#000000;stroke-width:1;stroke-opacity:1" id="rect45" width="24.595194279999998" height="14.17408560846561" x="110.30000000000001" y="151.4" ry="0" /><rect style="fill:none;stroke:#000000;stroke-width:1;stroke-opacity:1" id="rect46" width="24.595194279999998" height="14.17408560846561" x="149.8" y="151.4" ry="0" /><rect style="fill:none;stroke:#000000;stroke-width:1;stroke-opacity:1" id="rect47" width="24.595194279999998" height="14.17408560846561" x="190.10000000000002" y="151.4" ry="0" /><rect style="fill:none;stroke:#000000;stroke-width:1;stroke-opacity:1" id="rect48" width="24.595194279999998" height="14.17408560846561" x="228.8" y="151.4" ry="0" /><rect style="fill:none;stroke:#000000;stroke-width:1;stroke-opacity:1" id="rect49" width="24.595194279999998" height="14.17408560846561" x="269.40000000000003" y="151.4" ry="0" /><rect style="fill:none;stroke:#000000;stroke-width:1;stroke-opacity:1" id="rect50" width="24.595194279999998" height="14.17408560846561" x="307.90000000000003" y="151.4" ry="0" /><rect style="fill:none;stroke:#000000;stroke-width:1;stroke-opacity:1" id="rect51" width="24.595194279999998" height="14.17408560846561" x="349.20000000000005" y="151.4" ry="0" /><rect style="fill:none;stroke:#000000;stroke-width:1;stroke-opacity:1" id="rect52" width="24.595194279999998" height="14.17408560846561" x="390.5" y="151.4" ry="0" /><rect style="fill:none;stroke:#000000;stroke-width:1;stroke-opacity:1" id="rect53" width="24.595194279999998" height="14.17408560846561" x="424.3" y="151.4" ry="0" /><rect style="fill:none;stroke:#000000;stroke-width:1;stroke-opacity:1" id="rect54" width="24.595194279999998" height="14.17408560846561" x="463.8" y="151.4" ry="0" /><rect style="fill:none;stroke:#000000;stroke-width:1;stroke-opacity:1" id="rect55" width="24.595194279999998" height="14.17408560846561" x="502.3" y="151.4" ry="0" /><rect style="fill:none;stroke:#000000;stroke-width:1;stroke-opacity:1" id="rect56" width="40.163504027" height="14.077848576719578" x="547.9" y="151.4" ry="0" /><rect style="fill:none;stroke:#000000;stroke-width:1;stroke-opacity:1" id="rect57" width="24.595194279999998" height="14.17408560846561" x="617.1" y="151.4" ry="0" /><rect style="fill:none;stroke:#000000;stroke-width:1;stroke-opacity:1" id="rect58" width="24.595194279999998" height="14.17408560846561" x="655.2" y="151.4" ry="0" /><rect style="fill:none;stroke:#000000;stroke-width:1;stroke-opacity:1" id="rect59" width="24.595194279999998" height="14.17408560846561" x="696.7" y="151.4" ry="0" /><rect style="fill:none;stroke:#000000;stroke-width:1;stroke-opacity:1" id="rect60" width="24.572988307" height="25.394709031746036" x="746.3000000000001" y="151.4" ry="0" /><rect style="fill:none;stroke:#000000;stroke-width:1;stroke-opacity:1" id="rect61" width="24.572988307" height="25.394709031746036" x="784.0" y="151.4" ry="0" /><rect style="fill:none;stroke:#000000;stroke-width:1;stroke-opacity:1" id="rect62" width="24.572988307" height="25.394709031746036" x="824.6" y="151.4" ry="0" /><rect style="fill:none;stroke:#000000;stroke-width:1;stroke-opacity:1" id="rect63" width="24.616194782999997" height="15.30355485714286" x="865.7" y="168.9" ry="0" /><rect style="fill:none;stroke:#000000;stroke-width:1;stroke-opacity:1" id="rect64" width="31.790747022999998" height="14.678868587301588" x="19.0" y="192.3" ry="0" /><rect style="fill:none;stroke:#000000;stroke-width:1;stroke-opacity:1" id="rect65" width="24.597221292999997" height="14.728204793650795" x="80.9" y="192.3" ry="0" /><rect style="fill:none;stroke:#000000;stroke-width:1;stroke-opacity:1" id="rect66" width="24.597221292999997" height="14.728204793650795" x="121.5" y="192.3" ry="0" /><rect style="fill:none;stroke:#000000;stroke-width:1;stroke-opacity:1" id="rect67" width="24.597221292999997" height="14.728204793650795" x="158.9" y="192.3" ry="0" /><rect style="fill:none;stroke:#000000;stroke-width:1;stroke-opacity:1" id="rect68" width="24.597221292999997" height="14.728204793650795" x="199.9" y="192.3" ry="0" /><rect style="fill:none;stroke:#000000;stroke-width:1;stroke-opacity:1" id="rect69" width="24.597221292999997" height="14.728204793650795" x="238.70000000000002" y="192.3" ry="0" /><rect style="fill:none;stroke:#000000;stroke-width:1;stroke-opacity:1" id="rect70" width="24.597221292999997" height="14.728204793650795" x="277.40000000000003" y="192.3" ry="0" /><rect style="fill:none;stroke:#000000;stroke-width:1;stroke-opacity:1" id="rect71" width="24.597221292999997" height="14.728204793650795" x="318.40000000000003" y="192.3" ry="0" /><rect style="fill:none;stroke:#000000;stroke-width:1;stroke-opacity:1" id="rect72" width="24.597221292999997" height="14.728204793650795" x="358.0" y="192.3" ry="0" /><rect style="fill:none;stroke:#000000;stroke-width:1;stroke-opacity:1" id="rect73" width="24.597221292999997" height="14.728204793650795" x="395.90000000000003" y="192.3" ry="0" /><rect style="fill:none;stroke:#000000;stroke-width:1;stroke-opacity:1" id="rect74" width="24.597221292999997" height="14.728204793650795" x="439.3" y="192.3" ry="0" /><rect style="fill:none;stroke:#000000;stroke-width:1;stroke-opacity:1" id="rect75" width="24.597221292999997" height="14.728204793650795" x="476.40000000000003" y="192.3" ry="0" /><rect style="fill:none;stroke:#000000;stroke-width:1;stroke-opacity:1" id="rect76" width="24.597221292999997" height="14.728204793650795" x="514.9" y="192.3" ry="0" /><rect style="fill:none;stroke:#000000;stroke-width:1;stroke-opacity:1" id="rect77" width="24.519929392999998" height="23.618640349206352" x="746.3000000000001" y="193.10000000000002" ry="0" /><rect style="fill:none;stroke:#000000;stroke-width:1;stroke-opacity:1" id="rect78" width="24.519929392999998" height="23.618640349206352" x="785.4000000000001" y="193.10000000000002" ry="0" /><rect style="fill:none;stroke:#000000;stroke-width:1;stroke-opacity:1" id="rect79" width="24.519929392999998" height="23.618640349206352" x="825.7" y="193.10000000000002" ry="0" /><rect style="fill:none;stroke:#000000;stroke-width:1;stroke-opacity:1" id="rect80" width="36.315453343" height="13.115827825396826" x="14.5" y="233.8" ry="0" /><rect style="fill:none;stroke:#000000;stroke-width:1;stroke-opacity:1" id="rect81" width="24.598049926999998" height="13.534439592592594" x="60.800000000000004" y="233.8" ry="0" /><rect style="fill:none;stroke:#000000;stroke-width:1;stroke-opacity:1" id="rect82" width="24.598049926999998" height="13.534439592592594" x="100.60000000000001" y="233.8" ry="0" /><rect style="fill:none;stroke:#000000;stroke-width:1;stroke-opacity:1" id="rect83" width="24.598049926999998" height="13.534439592592594" x="139.70000000000002" y="233.8" ry="0" /><rect style="fill:none;stroke:#000000;stroke-width:1;stroke-opacity:1" id="rect84" width="24.598049926999998" height="13.534439592592594" x="179.60000000000002" y="233.8" ry="0" /><rect style="fill:none;stroke:#000000;stroke-width:1;stroke-opacity:1" id="rect85" width="24.598049926999998" height="13.534439592592594" x="219.0" y="233.8" ry="0" /><rect style="fill:none;stroke:#000000;stroke-width:1;stroke-opacity:1" id="rect86" width="24.598049926999998" height="13.534439592592594" x="258.5" y="233.8" ry="0" /><rect style="fill:none;stroke:#000000;stroke-width:1;stroke-opacity:1" id="rect87" width="24.598049926999998" height="13.534439592592594" x="299.3" y="233.8" ry="0" /><rect style="fill:none;stroke:#000000;stroke-width:1;stroke-opacity:1" id="rect88" width="24.598049926999998" height="13.534439592592594" x="338.8" y="233.8" ry="0" /><rect style="fill:none;stroke:#000000;stroke-width:1;stroke-opacity:1" id="rect89" width="24.598049926999998" height="13.534439592592594" x="377.6" y="233.8" ry="0" /><rect style="fill:none;stroke:#000000;stroke-width:1;stroke-opacity:1" id="rect90" width="24.598049926999998" height="13.534439592592594" x="417.3" y="233.8" ry="0" /><rect style="fill:none;stroke:#000000;stroke-width:1;stroke-opacity:1" id="rect91" width="24.598049926999998" height="13.534439592592594" x="458.8" y="233.8" ry="0" /><rect style="fill:none;stroke:#000000;stroke-width:1;stroke-opacity:1" id="rect92" width="18.791995854999996" height="13.589129846560848" x="659.2" y="233.8" ry="0" /><rect style="fill:none;stroke:#000000;stroke-width:1;stroke-opacity:1" id="rect93" width="48.934483486999994" height="13.398927962962963" x="518.9" y="233.9" ry="0" /><rect style="fill:none;stroke:#000000;stroke-width:1;stroke-opacity:1" id="rect94" width="24.520337631999997" height="22.45922844444445" x="746.3000000000001" y="233.9" ry="0" /><rect style="fill:none;stroke:#000000;stroke-width:1;stroke-opacity:1" id="rect95" width="24.520337631999997" height="22.459217915343917" x="785.4000000000001" y="233.9" ry="0" /><rect style="fill:none;stroke:#000000;stroke-width:1;stroke-opacity:1" id="rect96" width="24.520337631999997" height="22.459217915343917" x="825.7" y="233.9" ry="0" /><rect style="fill:none;stroke:#000000;stroke-width:1;stroke-opacity:1" id="rect97" width="24.667116266999997" height="15.028968550264553" x="865.7" y="256.8" ry="0" /><rect style="fill:none;stroke:#000000;stroke-width:1;stroke-opacity:1" id="rect98" width="31.806626810999997" height="14.866903582010584" x="14.5" y="274.1" ry="0" /><rect style="fill:none;stroke:#000000;stroke-width:1;stroke-opacity:1" id="rect99" width="24.609509995999996" height="14.916871534391536" x="70.8" y="274.1" ry="0" /><rect style="fill:none;stroke:#000000;stroke-width:1;stroke-opacity:1" id="rect100" width="24.609509995999996" height="14.916871534391536" x="113.2" y="274.1" ry="0" /><rect style="fill:none;stroke:#000000;stroke-width:1;stroke-opacity:1" id="rect101" width="24.759050068999997" height="9.163547577777779" x="266.6" y="274.1" ry="0" /><rect style="fill:none;stroke:#000000;stroke-width:1;stroke-opacity:1" id="rect102" width="19.924691935" height="11.616091174603175" x="621.7" y="276.40000000000003" ry="0" /><rect style="fill:none;stroke:#000000;stroke-width:1;stroke-opacity:1" id="rect103" width="20.158956289" height="11.614088539682541" x="697.5" y="276.40000000000003" ry="0" /><rect style="fill:none;stroke:#000000;stroke-width:1;stroke-opacity:1" id="rect104" width="24.599048744999997" height="15.932861296296299" x="421.90000000000003" y="276.5" ry="0" /><rect style="fill:none;stroke:#000000;stroke-width:1;stroke-opacity:1" id="rect105" width="24.599048744999997" height="15.932861296296299" x="466.6" y="276.5" ry="0" /><rect style="fill:none;stroke:#000000;stroke-width:1;stroke-opacity:1" id="rect106" width="24.599048744999997" height="15.932861296296299" x="507.1" y="276.5" ry="0" /><rect style="fill:none;stroke:#000000;stroke-width:1;stroke-opacity:1" id="rect107" width="29.477734745999996" height="15.895919947089949" x="553.4" y="276.5" ry="0" /><rect style="fill:none;stroke:#000000;stroke-width:1;stroke-opacity:1" id="rect108" width="18.818379439999998" height="11.602590761904763" x="659.2" y="276.5" ry="0" /><rect style="fill:none;stroke:#000000;stroke-width:1;stroke-opacity:1" id="rect109" width="24.540910648999997" height="20.797124640211642" x="767.3000000000001" y="276.5" ry="0" /><rect style="fill:none;stroke:#000000;stroke-width:1;stroke-opacity:1" id="rect110" width="24.540910648999997" height="20.797124640211642" x="825.7" y="276.5" ry="0" /></svg>