<svg xmlns="http://www.w3.org/2000/svg" xmlns:ns1="http://sodipodi.sourceforge.net/DTD/sodipodi-0.dtd" xmlns:ns2="http://www.inkscape.org/namespaces/inkscape" version="1.1" id="svg1" width="900" height="330" viewBox="0 0 900 330" ns1:docname="v1_keyboard_with_CLK.svg" ns2:version="1.4 (86a8ad7, 2024-10-11)" xml:space="preserve"><ns1:namedview id="namedview1" pagecolor="#ffffff" bordercolor="#000000" borderopacity="0.25" ns2:showpageshadow="2" ns2:pageopacity="0.0" ns2:pagecheckerboard="0" ns2:deskcolor="#d1d1d1" ns2:zoom="2.1433192" ns2:cx="351.09096" ns2:cy="182.66061" ns2:window-width="2880" ns2:window-height="1514" ns2:window-x="2869" ns2:window-y="-11" ns2:window-maximized="1" ns2:current-layer="layer1" /><defs id="defs1"><clipPath clipPathUnits="userSpaceOnUse" id="clipPath7" /></defs><g ns2:groupmode="layer" id="layer1" ns2:label="LED Vector Layer" /><rect style="fill:#fb2215;stroke:black;stroke-width:1" id="rect1" width="64.279495" height="17.646008" x="412.1" y="18.8" ry="0" /><rect style="fill:#02f229;stroke:black;stroke-width:1" id="rect2" width="32.748291" height="13.020079" x="10.3" y="65.0" ry="0" /><rect style="fill:#0d00f9;stroke:black;stroke-width:1" id="rect3" width="29.54369" height="13.152528" x="80.10000000000001" y="65.0" ry="0" /><rect style="fill:#2f200b;stroke:black;stroke-width:1" id="rect4" width="29.54369" height="13.152528" x="120.0" y="65.0" ry="0" /><rect style="fill:#fa3b1f;stroke:black;stroke-width:1" id="rect5" width="29.54369" height="13.152528" x="160.10000000000002" y="65.0" ry="0" /><rect style="fill:#00f049;stroke:black;stroke-width:1" id="rect6" width="29.54369" height="13.152528" x="200.0" y="65.0" ry="0" /><rect style="fill:#1100f0;stroke:black;stroke-width:1" id="rect7" width="29.54369" height="13.152528" x="262.0" y="65.0" ry="0" /><rect style="fill:#40340c;stroke:black;stroke-width:1" id="rect8" width="29.54369" height="13.152528" x="301.90000000000003" y="65.0" ry="0" /><rect style="fill:#fb401b;stroke:black;stroke-width:1" id="rect9" width="29.54369" height="13.152528" x="342.1" y="65.0" ry="0" /><rect style="fill:#03e848;stroke:black;stroke-width:1" id="rect10" width="29.54369" height="13.152528" x="382.0" y="65.0" ry="0" /><rect style="fill:#0f12ec;stroke:black;stroke-width:1" id="rect11" width="29.54369" height="13.152528" x="442.6" y="65.0" ry="0" /><rect style="fill:#3f350d;stroke:black;stroke-width:1" id="rect12" width="29.54369" height="13.152528" x="482.5" y="65.0" ry="0" /><rect style="fill:#fb3b21;stroke:black;stroke-width:1" id="rect13" width="29.54369" height="13.152528" x="522.7" y="65.0" ry="0" /><rect style="fill:#02f237;stroke:black;stroke-width:1" id="rect14" width="29.54369" height="13.152528" x="562.6" y="65.0" ry="0" /><rect style="fill:#0b2ee6;stroke:black;stroke-width:1" id="rect15" width="29.54369" height="13.152528" x="609.6" y="65.0" ry="0" /><rect style="fill:#4e450e;stroke:black;stroke-width:1" id="rect16" width="29.54369" height="13.152528" x="649.8000000000001" y="65.0" ry="0" /><rect style="fill:#fb4221;stroke:black;stroke-width:1" id="rect17" width="29.54369" height="13.152528" x="689.6" y="65.0" ry="0" /><rect style="fill:#02f842;stroke:black;stroke-width:1" id="rect18" width="18.753563" height="11.873909" x="740.2" y="66.2" ry="0" /><rect style="fill:#020fe8;stroke:black;stroke-width:1" id="rect19" width="20.567762" height="11.858371" x="777.8000000000001" y="66.3" ry="0" /><rect style="fill:#182e08;stroke:black;stroke-width:1" id="rect20" width="19.540634" height="11.867078" x="816.3000000000001" y="66.3" ry="0" /><rect style="fill:#fd1c26;stroke:black;stroke-width:1" id="rect21" width="19.890917" height="11.864082" x="852.6" y="66.3" ry="0" /><rect style="fill:#4b4710;stroke:black;stroke-width:1" id="rect22" width="15.343259" height="11.490194" x="788.4000000000001" y="107.30000000000001" ry="0" /><rect style="fill:#fb5028;stroke:black;stroke-width:1" id="rect23" width="17.419804" height="8.9919977" x="824.9000000000001" y="107.30000000000001" ry="0" /><rect style="fill:#00f62b;stroke:black;stroke-width:1" id="rect24" width="20.535765" height="8.9787741" x="860.4000000000001" y="107.30000000000001" ry="0" /><rect style="fill:#00f542;stroke:black;stroke-width:1" id="rect25" width="29.684113" height="12.778324" x="13.3" y="107.4" ry="0" /><rect style="fill:#060cf9;stroke:black;stroke-width:1" id="rect26" width="29.684113" height="12.778324" x="53.5" y="107.4" ry="0" /><rect style="fill:#312718;stroke:black;stroke-width:1" id="rect27" width="24.281347" height="12.811472" x="94.7" y="107.4" ry="0" /><rect style="fill:#fa481f;stroke:black;stroke-width:1" id="rect28" width="24.281347" height="12.811472" x="133.20000000000002" y="107.4" ry="0" /><rect style="fill:#00f43d;stroke:black;stroke-width:1" id="rect29" width="24.281347" height="12.811472" x="172.20000000000002" y="107.4" ry="0" /><rect style="fill:#0a1ee7;stroke:black;stroke-width:1" id="rect30" width="24.281347" height="12.811472" x="210.70000000000002" y="107.4" ry="0" /><rect style="fill:#402b14;stroke:black;stroke-width:1" id="rect31" width="24.281347" height="12.811472" x="249.60000000000002" y="107.4" ry="0" /><rect style="fill:#f94420;stroke:black;stroke-width:1" id="rect32" width="24.281347" height="12.811472" x="290.2" y="107.4" ry="0" /><rect style="fill:#02f244;stroke:black;stroke-width:1" id="rect33" width="24.281347" height="12.811472" x="327.90000000000003" y="107.4" ry="0" /><rect style="fill:#081be6;stroke:black;stroke-width:1" id="rect34" width="24.281347" height="12.811472" x="366.90000000000003" y="107.4" ry="0" /><rect style="fill:#443115;stroke:black;stroke-width:1" id="rect35" width="24.281347" height="12.811472" x="405.8" y="107.4" ry="0" /><rect style="fill:#f74928;stroke:black;stroke-width:1" id="rect36" width="24.281347" height="12.811472" x="446.20000000000005" y="107.4" ry="0" /><rect style="fill:#00f336;stroke:black;stroke-width:1" id="rect37" width="24.281347" height="12.811472" x="485.20000000000005" y="107.4" ry="0" /><rect style="fill:#0716db;stroke:black;stroke-width:1" id="rect38" width="24.281347" height="12.811472" x="544.7" y="107.4" ry="0" /><rect style="fill:#4b3e0c;stroke:black;stroke-width:1" id="rect39" width="24.281347" height="12.811472" x="611.7" y="107.4" ry="0" /><rect style="fill:#f94f22;stroke:black;stroke-width:1" id="rect40" width="24.281347" height="12.811472" x="650.8000000000001" y="107.4" ry="0" /><rect style="fill:#00f535;stroke:black;stroke-width:1" id="rect41" width="24.281347" height="12.811472" x="691.8000000000001" y="107.4" ry="0" /><rect style="fill:#0e27f2;stroke:black;stroke-width:1" id="rect42" width="18.414017" height="11.424661" x="746.6" y="107.4" ry="0" /><rect style="fill:#1004fb;stroke:black;stroke-width:1" id="rect43" width="29.681929" height="13.42699" x="20.0" y="149.5" ry="0" /><rect style="fill:#362a17;stroke:black;stroke-width:1" id="rect44" width="24.27956" height="13.46182" x="75.2" y="149.5" ry="0" /><rect style="fill:#fd4223;stroke:black;stroke-width:1" id="rect45" width="24.27956" height="13.46182" x="112.9" y="149.5" ry="0" /><rect style="fill:#02f64a;stroke:black;stroke-width:1" id="rect46" width="24.27956" height="13.46182" x="151.9" y="149.5" ry="0" /><rect style="fill:#0523f1;stroke:black;stroke-width:1" id="rect47" width="24.27956" height="13.46182" x="191.60000000000002" y="149.5" ry="0" /><rect style="fill:#412b1e;stroke:black;stroke-width:1" id="rect48" width="24.27956" height="13.46182" x="229.8" y="149.5" ry="0" /><rect style="fill:#f94726;stroke:black;stroke-width:1" id="rect49" width="24.27956" height="13.46182" x="269.90000000000003" y="149.5" ry="0" /><rect style="fill:#00f358;stroke:black;stroke-width:1" id="rect50" width="24.27956" height="13.46182" x="307.90000000000003" y="149.5" ry="0" /><rect style="fill:#0618e0;stroke:black;stroke-width:1" id="rect51" width="24.27956" height="13.46182" x="348.6" y="149.5" ry="0" /><rect style="fill:#47311a;stroke:black;stroke-width:1" id="rect52" width="24.27956" height="13.46182" x="389.40000000000003" y="149.5" ry="0" /><rect style="fill:#fb431f;stroke:black;stroke-width:1" id="rect53" width="24.27956" height="13.46182" x="422.8" y="149.5" ry="0" /><rect style="fill:#00ee44;stroke:black;stroke-width:1" id="rect54" width="24.27956" height="13.46182" x="461.8" y="149.5" ry="0" /><rect style="fill:#0928ed;stroke:black;stroke-width:1" id="rect55" width="24.27956" height="13.46182" x="499.8" y="149.5" ry="0" /><rect style="fill:#442814;stroke:black;stroke-width:1" id="rect56" width="39.648079" height="13.370419" x="544.8000000000001" y="149.5" ry="0" /><rect style="fill:#fb401e;stroke:black;stroke-width:1" id="rect57" width="24.27956" height="13.46182" x="613.1" y="149.5" ry="0" /><rect style="fill:#00f63b;stroke:black;stroke-width:1" id="rect58" width="24.27956" height="13.46182" x="650.8000000000001" y="149.5" ry="0" /><rect style="fill:#0926ed;stroke:black;stroke-width:1" id="rect59" width="24.27956" height="13.46182" x="691.8000000000001" y="149.5" ry="0" /><rect style="fill:#6a4617;stroke:black;stroke-width:1" id="rect60" width="24.257639" height="24.118593" x="740.6" y="149.5" ry="0" /><rect style="fill:#fb5128;stroke:black;stroke-width:1" id="rect61" width="24.257639" height="24.118593" x="777.9000000000001" y="149.5" ry="0" /><rect style="fill:#02f449;stroke:black;stroke-width:1" id="rect62" width="24.257639" height="24.118593" x="818.0" y="149.5" ry="0" /><rect style="fill:#0318f1;stroke:black;stroke-width:1" id="rect63" width="24.300291" height="14.534532" x="858.5" y="166.10000000000002" ry="0" /><rect style="fill:#38270c;stroke:black;stroke-width:1" id="rect64" width="31.382771" height="13.941237" x="22.700000000000003" y="188.4" ry="0" /><rect style="fill:#fb4425;stroke:black;stroke-width:1" id="rect65" width="24.281561" height="13.988094" x="83.80000000000001" y="188.4" ry="0" /><rect style="fill:#00f552;stroke:black;stroke-width:1" id="rect66" width="24.281561" height="13.988094" x="123.9" y="188.4" ry="0" /><rect style="fill:#071be8;stroke:black;stroke-width:1" id="rect67" width="24.281561" height="13.988094" x="160.8" y="188.4" ry="0" /><rect style="fill:#3b2920;stroke:black;stroke-width:1" id="rect68" width="24.281561" height="13.988094" x="201.3" y="188.4" ry="0" /><rect style="fill:#f9471f;stroke:black;stroke-width:1" id="rect69" width="24.281561" height="13.988094" x="239.60000000000002" y="188.4" ry="0" /><rect style="fill:#02f162;stroke:black;stroke-width:1" id="rect70" width="24.281561" height="13.988094" x="277.8" y="188.4" ry="0" /><rect style="fill:#0925ce;stroke:black;stroke-width:1" id="rect71" width="24.281561" height="13.988094" x="318.3" y="188.4" ry="0" /><rect style="fill:#473027;stroke:black;stroke-width:1" id="rect72" width="24.281561" height="13.988094" x="357.40000000000003" y="188.4" ry="0" /><rect style="fill:#f5471d;stroke:black;stroke-width:1" id="rect73" width="24.281561" height="13.988094" x="394.70000000000005" y="188.4" ry="0" /><rect style="fill:#10e22e;stroke:black;stroke-width:1" id="rect74" width="24.281561" height="13.988094" x="437.70000000000005" y="188.4" ry="0" /><rect style="fill:#0928f4;stroke:black;stroke-width:1" id="rect75" width="24.281561" height="13.988094" x="474.20000000000005" y="188.4" ry="0" /><rect style="fill:#27291f;stroke:black;stroke-width:1" id="rect76" width="24.281561" height="13.988094" x="512.2" y="188.4" ry="0" /><rect style="fill:#fd542c;stroke:black;stroke-width:1" id="rect77" width="24.205261" height="22.431774" x="740.6" y="189.10000000000002" ry="0" /><rect style="fill:#03f74d;stroke:black;stroke-width:1" id="rect78" width="24.205261" height="22.431774" x="779.3000000000001" y="189.10000000000002" ry="0" /><rect style="fill:#0320e0;stroke:black;stroke-width:1" id="rect79" width="24.205261" height="22.431774" x="819.1" y="189.10000000000002" ry="0" /><rect style="fill:#fd382c;stroke:black;stroke-width:1" id="rect80" width="18.550835" height="12.906259" x="654.7" y="227.70000000000002" ry="0" /><rect style="fill:#344e07;stroke:black;stroke-width:1" id="rect81" width="35.849411" height="12.456741" x="18.3" y="227.8" ry="0" /><rect style="fill:#ff4026;stroke:black;stroke-width:1" id="rect82" width="24.282379" height="12.854317" x="63.900000000000006" y="227.8" ry="0" /><rect style="fill:#02f457;stroke:black;stroke-width:1" id="rect83" width="24.282379" height="12.854317" x="103.2" y="227.8" ry="0" /><rect style="fill:#0503ed;stroke:black;stroke-width:1" id="rect84" width="24.282379" height="12.854317" x="141.9" y="227.8" ry="0" /><rect style="fill:#322419;stroke:black;stroke-width:1" id="rect85" width="24.282379" height="12.854317" x="181.3" y="227.8" ry="0" /><rect style="fill:#f93e22;stroke:black;stroke-width:1" id="rect86" width="24.282379" height="12.854317" x="220.20000000000002" y="227.8" ry="0" /><rect style="fill:#00f651;stroke:black;stroke-width:1" id="rect87" width="24.282379" height="12.854317" x="259.1" y="227.8" ry="0" /><rect style="fill:#0907f3;stroke:black;stroke-width:1" id="rect88" width="24.282379" height="12.854317" x="299.5" y="227.8" ry="0" /><rect style="fill:#3a2f1c;stroke:black;stroke-width:1" id="rect89" width="24.282379" height="12.854317" x="338.40000000000003" y="227.8" ry="0" /><rect style="fill:#f54115;stroke:black;stroke-width:1" id="rect90" width="24.282379" height="12.854317" x="376.70000000000005" y="227.8" ry="0" /><rect style="fill:#02ed43;stroke:black;stroke-width:1" id="rect91" width="24.282379" height="12.854317" x="415.90000000000003" y="227.8" ry="0" /><rect style="fill:#081aea;stroke:black;stroke-width:1" id="rect92" width="24.282379" height="12.854317" x="456.90000000000003" y="227.8" ry="0" /><rect style="fill:#3e360e;stroke:black;stroke-width:1" id="rect93" width="48.306499" height="12.725615" x="516.2" y="227.8" ry="0" /><rect style="fill:#22ee38;stroke:black;stroke-width:1" id="rect94" width="24.205664" height="21.330624" x="740.6" y="227.8" ry="0" /><rect style="fill:#0a2ad7;stroke:black;stroke-width:1" id="rect95" width="24.205664" height="21.330614" x="779.3000000000001" y="227.8" ry="0" /><rect style="fill:#315120;stroke:black;stroke-width:1" id="rect96" width="24.205664" height="21.330614" x="819.1" y="227.8" ry="0" /><rect style="fill:#fd3d1a;stroke:black;stroke-width:1" id="rect97" width="24.350559" height="14.273744" x="858.5" y="249.60000000000002" ry="0" /><rect style="fill:#0b0bdb;stroke:black;stroke-width:1" id="rect98" width="24.293692" height="14.16728" x="73.9" y="266.0" ry="0" /><rect style="fill:#253831;stroke:black;stroke-width:1" id="rect99" width="24.293692" height="14.16728" x="115.7" y="266.0" ry="0" /><rect style="fill:#fa4d2a;stroke:black;stroke-width:1" id="rect100" width="24.441313" height="8.7030678" x="267.1" y="266.0" ry="0" /><rect style="fill:#00f531;stroke:black;stroke-width:1" id="rect101" width="31.398447" height="14.119823" x="18.3" y="266.1" ry="0" /><rect style="fill:#00eb51;stroke:black;stroke-width:1" id="rect102" width="24.283365" height="15.132215" x="420.40000000000003" y="268.3" ry="0" /><rect style="fill:#0802f8;stroke:black;stroke-width:1" id="rect103" width="24.283365" height="15.132215" x="464.6" y="268.3" ry="0" /><rect style="fill:#423912;stroke:black;stroke-width:1" id="rect104" width="24.283365" height="15.132215" x="504.5" y="268.3" ry="0" /><rect style="fill:#f63912;stroke:black;stroke-width:1" id="rect105" width="29.099442" height="15.09713" x="550.2" y="268.3" ry="0" /><rect style="fill:#00f15e;stroke:black;stroke-width:1" id="rect106" width="19.668995" height="11.032368" x="617.7" y="268.3" ry="0" /><rect style="fill:#020dec;stroke:black;stroke-width:1" id="rect107" width="18.57688" height="11.019546" x="654.7" y="268.3" ry="0" /><rect style="fill:#30321c;stroke:black;stroke-width:1" id="rect108" width="19.900253" height="11.030466" x="692.5" y="268.3" ry="0" /><rect style="fill:#fd3d1f;stroke:black;stroke-width:1" id="rect109" width="24.225973" height="19.752043" x="761.4000000000001" y="268.3" ry="0" /><rect style="fill:#23ee2a;stroke:black;stroke-width:1" id="rect110" width="24.225973" height="19.752043" x="819.1" y="268.3" ry="0" /></svg>