<svg xmlns="http://www.w3.org/2000/svg" version="1.1" viewBox="0 0 900 330"><rect x="414.27255784999994" y="12.7545257010582" width="65.24368742499999" height="18.532976656084653" style="fill:none;stroke:black;stroke-width:1" /><text x="414.27255784999994" y="22.7545257010582" fill="black" style="font-size:10px;font-family:Arial">1</text><rect x="6.411561439999998" y="61.239583261904755" width="33.239515364999995" height="13.674527415343915" style="fill:none;stroke:black;stroke-width:1" /><text x="6.411561439999998" y="71.23958326190476" fill="black" style="font-size:10px;font-family:Arial">2</text><rect x="77.25370364999999" y="61.25237968518519" width="29.98684535" height="13.813633904761904" style="fill:none;stroke:black;stroke-width:1" /><text x="77.25370364999999" y="71.25237968518519" fill="black" style="font-size:10px;font-family:Arial">3</text><rect x="117.75077249999998" y="61.25237968518519" width="29.98684535" height="13.813633904761904" style="fill:none;stroke:black;stroke-width:1" /><text x="117.75077249999998" y="71.25237968518519" fill="black" style="font-size:10px;font-family:Arial">4</text><rect x="158.51238079999996" y="61.25237968518519" width="29.98684535" height="13.813633904761904" style="fill:none;stroke:black;stroke-width:1" /><text x="158.51238079999996" y="71.25237968518519" fill="black" style="font-size:10px;font-family:Arial">5</text><rect x="199.00942934999998" y="61.25237968518519" width="29.98684535" height="13.813633904761904" style="fill:none;stroke:black;stroke-width:1" /><text x="199.00942934999998" y="71.25237968518519" fill="black" style="font-size:10px;font-family:Arial">6</text><rect x="261.9240521" y="61.25237968518519" width="29.98684535" height="13.813633904761904" style="fill:none;stroke:black;stroke-width:1" /><text x="261.9240521" y="71.25237968518519" fill="black" style="font-size:10px;font-family:Arial">7</text><rect x="302.42112094999993" y="61.25237968518519" width="29.98684535" height="13.813633904761904" style="fill:none;stroke:black;stroke-width:1" /><text x="302.42112094999993" y="71.25237968518519" fill="black" style="font-size:10px;font-family:Arial">8</text><rect x="343.1827191" y="61.25237968518519" width="29.98684535" height="13.813633904761904" style="fill:none;stroke:black;stroke-width:1" /><text x="343.1827191" y="71.25237968518519" fill="black" style="font-size:10px;font-family:Arial">9</text><rect x="383.67981839999993" y="61.25237968518519" width="29.98684535" height="13.813633904761904" style="fill:none;stroke:black;stroke-width:1" /><text x="383.67981839999993" y="71.25237968518519" fill="black" style="font-size:10px;font-family:Arial">10</text><rect x="445.28255364999995" y="61.25237968518519" width="29.98684535" height="13.813633904761904" style="fill:none;stroke:black;stroke-width:1" /><text x="445.28255364999995" y="71.25237968518519" fill="black" style="font-size:10px;font-family:Arial">11</text><rect x="485.77965294999996" y="61.25237968518519" width="29.98684535" height="13.813633904761904" style="fill:none;stroke:black;stroke-width:1" /><text x="485.77965294999996" y="71.25237968518519" fill="black" style="font-size:10px;font-family:Arial">12</text><rect x="526.5412511" y="61.25237968518519" width="29.98684535" height="13.813633904761904" style="fill:none;stroke:black;stroke-width:1" /><text x="526.5412511" y="71.25237968518519" fill="black" style="font-size:10px;font-family:Arial">13</text><rect x="567.0382894999999" y="61.25237968518519" width="29.98684535" height="13.813633904761904" style="fill:none;stroke:black;stroke-width:1" /><text x="567.0382894999999" y="71.25237968518519" fill="black" style="font-size:10px;font-family:Arial">14</text><rect x="614.7360424" y="61.25237968518519" width="29.98684535" height="13.813633904761904" style="fill:none;stroke:black;stroke-width:1" /><text x="614.7360424" y="71.25237968518519" fill="black" style="font-size:10px;font-family:Arial">15</text><rect x="655.4976101" y="61.25237968518519" width="29.98684535" height="13.813633904761904" style="fill:none;stroke:black;stroke-width:1" /><text x="655.4976101" y="71.25237968518519" fill="black" style="font-size:10px;font-family:Arial">16</text><rect x="695.9947093999999" y="61.25237968518519" width="29.98684535" height="13.813633904761904" style="fill:none;stroke:black;stroke-width:1" /><text x="695.9947093999999" y="71.25237968518519" fill="black" style="font-size:10px;font-family:Arial">17</text><rect x="747.31100835" y="62.579521277777786" width="19.034866445" height="12.470745695767194" style="fill:none;stroke:black;stroke-width:1" /><text x="747.31100835" y="72.57952127777779" fill="black" style="font-size:10px;font-family:Arial">18</text><rect x="785.4746124999999" y="62.587678682539675" width="20.876278429999996" height="12.454426685185185" style="fill:none;stroke:black;stroke-width:1" /><text x="785.4746124999999" y="72.58767868253967" fill="black" style="font-size:10px;font-family:Arial">19</text><rect x="824.5651755499999" y="62.58311108201059" width="19.833743509999998" height="12.463571338624337" style="fill:none;stroke:black;stroke-width:1" /><text x="824.5651755499999" y="72.58311108201059" fill="black" style="font-size:10px;font-family:Arial">20</text><rect x="861.4097872" y="62.584689629629636" width="20.189280755" height="12.460424746031746" style="fill:none;stroke:black;stroke-width:1" /><text x="861.4097872" y="72.58468962962964" fill="black" style="font-size:10px;font-family:Arial">21</text><rect x="9.535013834999999" y="105.82437523809523" width="30.129374694999996" height="13.420620708994708" style="fill:none;stroke:black;stroke-width:1" /><text x="9.535013834999999" y="115.82437523809523" fill="black" style="font-size:10px;font-family:Arial">22</text><rect x="50.312508914999995" y="105.82437523809523" width="30.129374694999996" height="13.420620708994708" style="fill:none;stroke:black;stroke-width:1" /><text x="50.312508914999995" y="115.82437523809523" fill="black" style="font-size:10px;font-family:Arial">23</text><rect x="92.13668112999999" y="105.80697235449736" width="24.645567205" height="13.455434878306878" style="fill:none;stroke:black;stroke-width:1" /><text x="92.13668112999999" y="115.80697235449736" fill="black" style="font-size:10px;font-family:Arial">24</text><rect x="131.2189496" y="105.80697235449736" width="24.645567205" height="13.455434878306878" style="fill:none;stroke:black;stroke-width:1" /><text x="131.2189496" y="115.80697235449736" fill="black" style="font-size:10px;font-family:Arial">25</text><rect x="170.80878099999998" y="105.80697235449736" width="24.645567205" height="13.455434878306878" style="fill:none;stroke:black;stroke-width:1" /><text x="170.80878099999998" y="115.80697235449736" fill="black" style="font-size:10px;font-family:Arial">26</text><rect x="209.89105149999997" y="105.80697235449736" width="24.645567205" height="13.455434878306878" style="fill:none;stroke:black;stroke-width:1" /><text x="209.89105149999997" y="115.80697235449736" fill="black" style="font-size:10px;font-family:Arial">27</text><rect x="249.30550104999998" y="105.80697235449736" width="24.645567205" height="13.455434878306878" style="fill:none;stroke:black;stroke-width:1" /><text x="249.30550104999998" y="115.80697235449736" fill="black" style="font-size:10px;font-family:Arial">28</text><rect x="290.5152521499999" y="105.80697235449736" width="24.645567205" height="13.455434878306878" style="fill:none;stroke:black;stroke-width:1" /><text x="290.5152521499999" y="115.80697235449736" fill="black" style="font-size:10px;font-family:Arial">29</text><rect x="328.83261865" y="105.80697235449736" width="24.645567205" height="13.455434878306878" style="fill:none;stroke:black;stroke-width:1" /><text x="328.83261865" y="115.80697235449736" fill="black" style="font-size:10px;font-family:Arial">30</text><rect x="368.36213874999993" y="105.80697235449736" width="24.645567205" height="13.455434878306878" style="fill:none;stroke:black;stroke-width:1" /><text x="368.36213874999993" y="115.80697235449736" fill="black" style="font-size:10px;font-family:Arial">31</text><rect x="407.89163855" y="105.80697235449736" width="24.645567205" height="13.455434878306878" style="fill:none;stroke:black;stroke-width:1" /><text x="407.89163855" y="115.80697235449736" fill="black" style="font-size:10px;font-family:Arial">32</text><rect x="448.93687844999994" y="105.80697235449736" width="24.645567205" height="13.455434878306878" style="fill:none;stroke:black;stroke-width:1" /><text x="448.93687844999994" y="115.80697235449736" fill="black" style="font-size:10px;font-family:Arial">33</text><rect x="488.43786689999996" y="105.80697235449736" width="24.645567205" height="13.455434878306878" style="fill:none;stroke:black;stroke-width:1" /><text x="488.43786689999996" y="115.80697235449736" fill="black" style="font-size:10px;font-family:Arial">34</text><rect x="548.8964027999999" y="105.80697235449736" width="24.645567205" height="13.455434878306878" style="fill:none;stroke:black;stroke-width:1" /><text x="548.8964027999999" y="115.80697235449736" fill="black" style="font-size:10px;font-family:Arial">35</text><rect x="616.9133595" y="105.80697235449736" width="24.645567205" height="13.455434878306878" style="fill:none;stroke:black;stroke-width:1" /><text x="616.9133595" y="115.80697235449736" fill="black" style="font-size:10px;font-family:Arial">36</text><rect x="656.5455671499999" y="105.80697235449736" width="24.645567205" height="13.455434878306878" style="fill:none;stroke:black;stroke-width:1" /><text x="656.5455671499999" y="115.80697235449736" fill="black" style="font-size:10px;font-family:Arial">37</text><rect x="698.1517163499999" y="105.80697235449736" width="24.645567205" height="13.455434878306878" style="fill:none;stroke:black;stroke-width:1" /><text x="698.1517163499999" y="115.80697235449736" fill="black" style="font-size:10px;font-family:Arial">38</text><rect x="753.8267298" y="105.77018158730158" width="18.690227255" height="11.998916447089947" style="fill:none;stroke:black;stroke-width:1" /><text x="753.8267298" y="115.77018158730158" fill="black" style="font-size:10px;font-family:Arial">39</text><rect x="796.2650572" y="105.73576441798942" width="15.573407884999998" height="12.067743433862434" style="fill:none;stroke:black;stroke-width:1" /><text x="796.2650572" y="115.73576441798942" fill="black" style="font-size:10px;font-family:Arial">40</text><rect x="833.2406951999999" y="105.73196246031746" width="17.681101059999996" height="9.44397642037037" style="fill:none;stroke:black;stroke-width:1" /><text x="833.2406951999999" y="115.73196246031746" fill="black" style="font-size:10px;font-family:Arial">41</text><rect x="869.3315475499999" y="105.7388942063492" width="20.843801475" height="9.430088142063493" style="fill:none;stroke:black;stroke-width:1" /><text x="869.3315475499999" y="115.7388942063492" fill="black" style="font-size:10px;font-family:Arial">42</text><rect x="16.333234145" y="150.00690433862434" width="30.127157934999996" height="14.101891613756614" style="fill:none;stroke:black;stroke-width:1" /><text x="16.333234145" y="160.00690433862434" fill="black" style="font-size:10px;font-family:Arial">43</text><rect x="72.36502009499999" y="149.98861923280424" width="24.643753399999998" height="14.138472328042328" style="fill:none;stroke:black;stroke-width:1" /><text x="72.36502009499999" y="159.98861923280424" fill="black" style="font-size:10px;font-family:Arial">44</text><rect x="110.54739869999999" y="149.98861923280424" width="24.643753399999998" height="14.138472328042328" style="fill:none;stroke:black;stroke-width:1" /><text x="110.54739869999999" y="159.98861923280424" fill="black" style="font-size:10px;font-family:Arial">45</text><rect x="150.1343272" y="149.98861923280424" width="24.643753399999998" height="14.138472328042328" style="fill:none;stroke:black;stroke-width:1" /><text x="150.1343272" y="159.98861923280424" fill="black" style="font-size:10px;font-family:Arial">46</text><rect x="190.50461239999996" y="149.98861923280424" width="24.643753399999998" height="14.138472328042328" style="fill:none;stroke:black;stroke-width:1" /><text x="190.50461239999996" y="159.98861923280424" fill="black" style="font-size:10px;font-family:Arial">47</text><rect x="229.21241894999997" y="149.98861923280424" width="24.643753399999998" height="14.138472328042328" style="fill:none;stroke:black;stroke-width:1" /><text x="229.21241894999997" y="159.98861923280424" fill="black" style="font-size:10px;font-family:Arial">48</text><rect x="269.90571774999995" y="149.98861923280424" width="24.643753399999998" height="14.138472328042328" style="fill:none;stroke:black;stroke-width:1" /><text x="269.90571774999995" y="159.98861923280424" fill="black" style="font-size:10px;font-family:Arial">49</text><rect x="308.46936385" y="149.98861923280424" width="24.643753399999998" height="14.138472328042328" style="fill:none;stroke:black;stroke-width:1" /><text x="308.46936385" y="159.98861923280424" fill="black" style="font-size:10px;font-family:Arial">50</text><rect x="349.8629213" y="149.98861923280424" width="24.643753399999998" height="14.138472328042328" style="fill:none;stroke:black;stroke-width:1" /><text x="349.8629213" y="159.98861923280424" fill="black" style="font-size:10px;font-family:Arial">51</text><rect x="391.25647875" y="149.98861923280424" width="24.643753399999998" height="14.138472328042328" style="fill:none;stroke:black;stroke-width:1" /><text x="391.25647875" y="159.98861923280424" fill="black" style="font-size:10px;font-family:Arial">52</text><rect x="425.16679645" y="149.98861923280424" width="24.643753399999998" height="14.138472328042328" style="fill:none;stroke:black;stroke-width:1" /><text x="425.16679645" y="159.98861923280424" fill="black" style="font-size:10px;font-family:Arial">53</text><rect x="464.75371479999995" y="149.98861923280424" width="24.643753399999998" height="14.138472328042328" style="fill:none;stroke:black;stroke-width:1" /><text x="464.75371479999995" y="159.98861923280424" fill="black" style="font-size:10px;font-family:Arial">54</text><rect x="503.32561284999997" y="149.98861923280424" width="24.643753399999998" height="14.138472328042328" style="fill:none;stroke:black;stroke-width:1" /><text x="503.32561284999997" y="159.98861923280424" fill="black" style="font-size:10px;font-family:Arial">55</text><rect x="548.9524713999999" y="150.0366163227513" width="40.242800185" height="14.042477097883598" style="fill:none;stroke:black;stroke-width:1" /><text x="548.9524713999999" y="160.0366163227513" fill="black" style="font-size:10px;font-family:Arial">56</text><rect x="618.28297005" y="149.98861923280424" width="24.643753399999998" height="14.138472328042328" style="fill:none;stroke:black;stroke-width:1" /><text x="618.28297005" y="159.98861923280424" fill="black" style="font-size:10px;font-family:Arial">57</text><rect x="656.5258050999998" y="149.98861923280424" width="24.643753399999998" height="14.138472328042328" style="fill:none;stroke:black;stroke-width:1" /><text x="656.5258050999998" y="159.98861923280424" fill="black" style="font-size:10px;font-family:Arial">58</text><rect x="698.1289092999999" y="149.98861923280424" width="24.643753399999998" height="14.138472328042328" style="fill:none;stroke:black;stroke-width:1" /><text x="698.1289092999999" y="159.98861923280424" fill="black" style="font-size:10px;font-family:Arial">59</text><rect x="747.7536397" y="150.03041976190474" width="24.621503585" height="25.33090323015873" style="fill:none;stroke:black;stroke-width:1" /><text x="747.7536397" y="160.03041976190474" fill="black" style="font-size:10px;font-family:Arial">60</text><rect x="785.5718698" y="150.03041976190474" width="24.621503585" height="25.33090323015873" style="fill:none;stroke:black;stroke-width:1" /><text x="785.5718698" y="160.03041976190474" fill="black" style="font-size:10px;font-family:Arial">61</text><rect x="826.2353072999999" y="150.03041976190474" width="24.621503585" height="25.33090323015873" style="fill:none;stroke:black;stroke-width:1" /><text x="826.2353072999999" y="160.03041976190474" fill="black" style="font-size:10px;font-family:Arial">62</text><rect x="867.42105365" y="167.46389756613755" width="24.664795365" height="15.265103714285715" style="fill:none;stroke:black;stroke-width:1" /><text x="867.42105365" y="177.46389756613755" fill="black" style="font-size:10px;font-family:Arial">63</text><rect x="19.08761224" y="190.84842637566138" width="31.853512565" height="14.641987007936507" style="fill:none;stroke:black;stroke-width:1" /><text x="19.08761224" y="200.84842637566138" fill="black" style="font-size:10px;font-family:Arial">64</text><rect x="81.09525737999999" y="190.82380817460316" width="24.645784414999998" height="14.691199253968254" style="fill:none;stroke:black;stroke-width:1" /><text x="81.09525737999999" y="200.82380817460316" fill="black" style="font-size:10px;font-family:Arial">65</text><rect x="121.74193519999999" y="190.82380817460316" width="24.645784414999998" height="14.691199253968254" style="fill:none;stroke:black;stroke-width:1" /><text x="121.74193519999999" y="200.82380817460316" fill="black" style="font-size:10px;font-family:Arial">66</text><rect x="159.26050684999998" y="190.82380817460316" width="24.645784414999998" height="14.691199253968254" style="fill:none;stroke:black;stroke-width:1" /><text x="159.26050684999998" y="200.82380817460316" fill="black" style="font-size:10px;font-family:Arial">67</text><rect x="200.34762564999997" y="190.82380817460316" width="24.645784414999998" height="14.691199253968254" style="fill:none;stroke:black;stroke-width:1" /><text x="200.34762564999997" y="200.82380817460316" fill="black" style="font-size:10px;font-family:Arial">68</text><rect x="239.15641455" y="190.82380817460316" width="24.645784414999998" height="14.691199253968254" style="fill:none;stroke:black;stroke-width:1" /><text x="239.15641455" y="200.82380817460316" fill="black" style="font-size:10px;font-family:Arial">69</text><rect x="277.95286104999997" y="190.82380817460316" width="24.645784414999998" height="14.691199253968254" style="fill:none;stroke:black;stroke-width:1" /><text x="277.95286104999997" y="200.82380817460316" fill="black" style="font-size:10px;font-family:Arial">70</text><rect x="319.0523121" y="190.82380817460316" width="24.645784414999998" height="14.691199253968254" style="fill:none;stroke:black;stroke-width:1" /><text x="319.0523121" y="200.82380817460316" fill="black" style="font-size:10px;font-family:Arial">71</text><rect x="358.72682495" y="190.82380817460316" width="24.645784414999998" height="14.691199253968254" style="fill:none;stroke:black;stroke-width:1" /><text x="358.72682495" y="200.82380817460316" fill="black" style="font-size:10px;font-family:Arial">72</text><rect x="396.645266" y="190.82380817460316" width="24.645784414999998" height="14.691199253968254" style="fill:none;stroke:black;stroke-width:1" /><text x="396.645266" y="200.82380817460316" fill="black" style="font-size:10px;font-family:Arial">73</text><rect x="440.21623189999997" y="190.82380817460316" width="24.645784414999998" height="14.691199253968254" style="fill:none;stroke:black;stroke-width:1" /><text x="440.21623189999997" y="200.82380817460316" fill="black" style="font-size:10px;font-family:Arial">74</text><rect x="477.34077039999994" y="190.82380817460316" width="24.645784414999998" height="14.691199253968254" style="fill:none;stroke:black;stroke-width:1" /><text x="477.34077039999994" y="200.82380817460316" fill="black" style="font-size:10px;font-family:Arial">75</text><rect x="515.89620515" y="190.82380817460316" width="24.645784414999998" height="14.691199253968254" style="fill:none;stroke:black;stroke-width:1" /><text x="515.89620515" y="200.82380817460316" fill="black" style="font-size:10px;font-family:Arial">76</text><rect x="747.7481891499999" y="191.62542259259257" width="24.568339915" height="23.55929703174603" style="fill:none;stroke:black;stroke-width:1" /><text x="747.7481891499999" y="201.62542259259257" fill="black" style="font-size:10px;font-family:Arial">77</text><rect x="786.98837335" y="191.62542259259257" width="24.568339915" height="23.55929703174603" style="fill:none;stroke:black;stroke-width:1" /><text x="786.98837335" y="201.62542259259257" fill="black" style="font-size:10px;font-family:Arial">78</text><rect x="827.3812727499999" y="191.62542259259257" width="24.568339915" height="23.55929703174603" style="fill:none;stroke:black;stroke-width:1" /><text x="827.3812727499999" y="201.62542259259257" fill="black" style="font-size:10px;font-family:Arial">79</text><rect x="14.581934874999998" y="232.2448661904762" width="36.387152165" height="13.082873484126983" style="fill:none;stroke:black;stroke-width:1" /><text x="14.581934874999998" y="242.2448661904762" fill="black" style="font-size:10px;font-family:Arial">80</text><rect x="60.887816244999996" y="232.208422010582" width="24.646614684999996" height="13.500433462962963" style="fill:none;stroke:black;stroke-width:1" /><text x="60.887816244999996" y="242.208422010582" fill="black" style="font-size:10px;font-family:Arial">81</text><rect x="100.79251789999999" y="232.208422010582" width="24.646614684999996" height="13.500433462962963" style="fill:none;stroke:black;stroke-width:1" /><text x="100.79251789999999" y="242.208422010582" fill="black" style="font-size:10px;font-family:Arial">82</text><rect x="139.9973801" y="232.208422010582" width="24.646614684999996" height="13.500433462962963" style="fill:none;stroke:black;stroke-width:1" /><text x="139.9973801" y="242.208422010582" fill="black" style="font-size:10px;font-family:Arial">83</text><rect x="179.98669519999999" y="232.208422010582" width="24.646614684999996" height="13.500433462962963" style="fill:none;stroke:black;stroke-width:1" /><text x="179.98669519999999" y="242.208422010582" fill="black" style="font-size:10px;font-family:Arial">84</text><rect x="219.47637654999997" y="232.208422010582" width="24.646614684999996" height="13.500433462962963" style="fill:none;stroke:black;stroke-width:1" /><text x="219.47637654999997" y="242.208422010582" fill="black" style="font-size:10px;font-family:Arial">85</text><rect x="258.9969748" y="232.208422010582" width="24.646614684999996" height="13.500433462962963" style="fill:none;stroke:black;stroke-width:1" /><text x="258.9969748" y="242.208422010582" fill="black" style="font-size:10px;font-family:Arial">86</text><rect x="299.94355669999993" y="232.208422010582" width="24.646614684999996" height="13.500433462962963" style="fill:none;stroke:black;stroke-width:1" /><text x="299.94355669999993" y="242.208422010582" fill="black" style="font-size:10px;font-family:Arial">87</text><rect x="339.50296855" y="232.208422010582" width="24.646614684999996" height="13.500433462962963" style="fill:none;stroke:black;stroke-width:1" /><text x="339.50296855" y="242.208422010582" fill="black" style="font-size:10px;font-family:Arial">88</text><rect x="378.39982899999995" y="232.208422010582" width="24.646614684999996" height="13.500433462962963" style="fill:none;stroke:black;stroke-width:1" /><text x="378.39982899999995" y="242.208422010582" fill="black" style="font-size:10px;font-family:Arial">89</text><rect x="418.16027174999994" y="232.208422010582" width="24.646614684999996" height="13.500433462962963" style="fill:none;stroke:black;stroke-width:1" /><text x="418.16027174999994" y="242.208422010582" fill="black" style="font-size:10px;font-family:Arial">90</text><rect x="459.70774379999995" y="232.208422010582" width="24.646614684999996" height="13.500433462962963" style="fill:none;stroke:black;stroke-width:1" /><text x="459.70774379999995" y="242.208422010582" fill="black" style="font-size:10px;font-family:Arial">91</text><rect x="519.90689645" y="232.27600653439154" width="49.031096485" height="13.365262314814814" style="fill:none;stroke:black;stroke-width:1" /><text x="519.90689645" y="242.27600653439154" fill="black" style="font-size:10px;font-family:Arial">92</text><rect x="660.5592932999999" y="232.18114664021164" width="18.829097524999998" height="13.554986304232804" style="fill:none;stroke:black;stroke-width:1" /><text x="660.5592932999999" y="242.18114664021164" fill="black" style="font-size:10px;font-family:Arial">93</text><rect x="747.7520359999999" y="232.2627837037037" width="24.568748959999997" height="22.402798222222224" style="fill:none;stroke:black;stroke-width:1" /><text x="747.7520359999999" y="242.2627837037037" fill="black" style="font-size:10px;font-family:Arial">94</text><rect x="786.9928291999998" y="232.2627837037037" width="24.568748959999997" height="22.402787719576718" style="fill:none;stroke:black;stroke-width:1" /><text x="786.9928291999998" y="242.2627837037037" fill="black" style="font-size:10px;font-family:Arial">95</text><rect x="827.3864086499999" y="232.2627837037037" width="24.568748959999997" height="22.402787719576718" style="fill:none;stroke:black;stroke-width:1" /><text x="827.3864086499999" y="242.2627837037037" fill="black" style="font-size:10px;font-family:Arial">96</text><rect x="867.4193788999999" y="255.15129357142854" width="24.715817384999998" height="14.991207322751324" style="fill:none;stroke:black;stroke-width:1" /><text x="867.4193788999999" y="265.15129357142854" fill="black" style="font-size:10px;font-family:Arial">97</text><rect x="14.584252119999999" y="272.4296998148148" width="31.869423705" height="14.829549552910052" style="fill:none;stroke:black;stroke-width:1" /><text x="14.584252119999999" y="282.4296998148148" fill="black" style="font-size:10px;font-family:Arial">98</text><rect x="70.97564445" y="272.40476653439157" width="24.658097379999997" height="14.879391957671958" style="fill:none;stroke:black;stroke-width:1" /><text x="70.97564445" y="282.40476653439157" fill="black" style="font-size:10px;font-family:Arial">99</text><rect x="113.42772509999999" y="272.40476653439157" width="24.658097379999997" height="14.879391957671958" style="fill:none;stroke:black;stroke-width:1" /><text x="113.42772509999999" y="282.40476653439157" fill="black" style="font-size:10px;font-family:Arial">100</text><rect x="267.09597444999997" y="272.3571055291005" width="24.807932694999998" height="9.140523588888888" style="fill:none;stroke:black;stroke-width:1" /><text x="267.09597444999997" y="282.3571055291005" fill="black" style="font-size:10px;font-family:Arial">101</text><rect x="422.7190326" y="274.7875332275132" width="24.647615475" height="15.89282898148148" style="fill:none;stroke:black;stroke-width:1" /><text x="422.7190326" y="284.7875332275132" fill="black" style="font-size:10px;font-family:Arial">102</text><rect x="467.57461294999996" y="274.7875332275132" width="24.647615475" height="15.89282898148148" style="fill:none;stroke:black;stroke-width:1" /><text x="467.57461294999996" y="284.7875332275132" fill="black" style="font-size:10px;font-family:Arial">103</text><rect x="508.0997160999999" y="274.7875332275132" width="24.647615475" height="15.89282898148148" style="fill:none;stroke:black;stroke-width:1" /><text x="508.0997160999999" y="284.7875332275132" fill="black" style="font-size:10px;font-family:Arial">104</text><rect x="554.4829932499999" y="274.80596537037036" width="29.535933629999995" height="15.85598044973545" style="fill:none;stroke:black;stroke-width:1" /><text x="554.4829932499999" y="284.80596537037036" fill="black" style="font-size:10px;font-family:Arial">105</text><rect x="622.9696005999999" y="274.7354506084656" width="19.964029925" height="11.586905015873015" style="fill:none;stroke:black;stroke-width:1" /><text x="622.9696005999999" y="284.7354506084656" fill="black" style="font-size:10px;font-family:Arial">106</text><rect x="660.5460373999999" y="274.7421828042328" width="18.855533199999996" height="11.573438523809523" style="fill:none;stroke:black;stroke-width:1" /><text x="660.5460373999999" y="284.7421828042328" fill="black" style="font-size:10px;font-family:Arial">107</text><rect x="698.9091803999999" y="274.7364798677248" width="20.198756794999998" height="11.584907412698414" style="fill:none;stroke:black;stroke-width:1" /><text x="698.9091803999999" y="284.7364798677248" fill="black" style="font-size:10px;font-family:Arial">108</text><rect x="768.8306932499999" y="274.8193352380952" width="24.589362594999997" height="20.744870558201058" style="fill:none;stroke:black;stroke-width:1" /><text x="768.8306932499999" y="284.8193352380952" fill="black" style="font-size:10px;font-family:Arial">109</text><rect x="827.3768067499999" y="274.8193352380952" width="24.589362594999997" height="20.744870558201058" style="fill:none;stroke:black;stroke-width:1" /><text x="827.3768067499999" y="284.8193352380952" fill="black" style="font-size:10px;font-family:Arial">110</text></svg>