<svg xmlns="http://www.w3.org/2000/svg" version="1.1" viewBox="0 0 900 330"><rect x="416.62419308999995" y="13.655006679894178" width="64.98656944499999" height="18.43961153439153" style="fill:none;stroke:black;stroke-width:1" /><text x="416.62419308999995" y="23.65500667989418" fill="black" style="font-size:10px;font-family:Arial">1</text><rect x="10.370530655999998" y="61.895807023809525" width="33.108522201" height="13.605638108465609" style="fill:none;stroke:black;stroke-width:1" /><text x="10.370530655999998" y="71.89580702380952" fill="black" style="font-size:10px;font-family:Arial">2</text><rect x="80.93349201" y="61.908538981481485" width="29.868670589999997" height="13.74404380952381" style="fill:none;stroke:black;stroke-width:1" /><text x="80.93349201" y="71.90853898148148" fill="black" style="font-size:10px;font-family:Arial">3</text><rect x="121.27096649999999" y="61.908538981481485" width="29.868670589999997" height="13.74404380952381" style="fill:none;stroke:black;stroke-width:1" /><text x="121.27096649999999" y="71.90853898148148" fill="black" style="font-size:10px;font-family:Arial">4</text><rect x="161.87193791999997" y="61.908538981481485" width="29.868670589999997" height="13.74404380952381" style="fill:none;stroke:black;stroke-width:1" /><text x="161.87193791999997" y="71.90853898148148" fill="black" style="font-size:10px;font-family:Arial">5</text><rect x="202.20939218999996" y="61.908538981481485" width="29.868670589999997" height="13.74404380952381" style="fill:none;stroke:black;stroke-width:1" /><text x="202.20939218999996" y="71.90853898148148" fill="black" style="font-size:10px;font-family:Arial">6</text><rect x="264.87607554" y="61.908538981481485" width="29.868670589999997" height="13.74404380952381" style="fill:none;stroke:black;stroke-width:1" /><text x="264.87607554" y="71.90853898148148" fill="black" style="font-size:10px;font-family:Arial">7</text><rect x="305.21355002999996" y="61.908538981481485" width="29.868670589999997" height="13.74404380952381" style="fill:none;stroke:black;stroke-width:1" /><text x="305.21355002999996" y="71.90853898148148" fill="black" style="font-size:10px;font-family:Arial">8</text><rect x="345.81451133999997" y="61.908538981481485" width="29.868670589999997" height="13.74404380952381" style="fill:none;stroke:black;stroke-width:1" /><text x="345.81451133999997" y="71.90853898148148" fill="black" style="font-size:10px;font-family:Arial">9</text><rect x="386.15201615999996" y="61.908538981481485" width="29.868670589999997" height="13.74404380952381" style="fill:none;stroke:black;stroke-width:1" /><text x="386.15201615999996" y="71.90853898148148" fill="black" style="font-size:10px;font-family:Arial">10</text><rect x="447.51198200999994" y="61.908538981481485" width="29.868670589999997" height="13.74404380952381" style="fill:none;stroke:black;stroke-width:1" /><text x="447.51198200999994" y="71.90853898148148" fill="black" style="font-size:10px;font-family:Arial">11</text><rect x="487.84948683" y="61.908538981481485" width="29.868670589999997" height="13.74404380952381" style="fill:none;stroke:black;stroke-width:1" /><text x="487.84948683" y="71.90853898148148" fill="black" style="font-size:10px;font-family:Arial">12</text><rect x="528.4504481399999" y="61.908538981481485" width="29.868670589999997" height="13.74404380952381" style="fill:none;stroke:black;stroke-width:1" /><text x="528.4504481399999" y="71.90853898148148" fill="black" style="font-size:10px;font-family:Arial">13</text><rect x="568.7878923" y="61.908538981481485" width="29.868670589999997" height="13.74404380952381" style="fill:none;stroke:black;stroke-width:1" /><text x="568.7878923" y="71.90853898148148" fill="black" style="font-size:10px;font-family:Arial">14</text><rect x="616.29767376" y="61.908538981481485" width="29.868670589999997" height="13.74404380952381" style="fill:none;stroke:black;stroke-width:1" /><text x="616.29767376" y="71.90853898148148" fill="black" style="font-size:10px;font-family:Arial">15</text><rect x="656.89860474" y="61.908538981481485" width="29.868670589999997" height="13.74404380952381" style="fill:none;stroke:black;stroke-width:1" /><text x="656.89860474" y="71.90853898148148" fill="black" style="font-size:10px;font-family:Arial">16</text><rect x="697.2361095599999" y="61.908538981481485" width="29.868670589999997" height="13.74404380952381" style="fill:none;stroke:black;stroke-width:1" /><text x="697.2361095599999" y="71.90853898148148" fill="black" style="font-size:10px;font-family:Arial">17</text><rect x="748.35017679" y="63.228994722222225" width="18.959852192999996" height="12.407920780423279" style="fill:none;stroke:black;stroke-width:1" /><text x="748.35017679" y="73.22899472222223" fill="black" style="font-size:10px;font-family:Arial">18</text><rect x="786.3633825" y="63.237111031746025" width="20.794007381999997" height="12.39168398148148" style="fill:none;stroke:black;stroke-width:1" /><text x="786.3633825" y="73.23711103174602" fill="black" style="font-size:10px;font-family:Arial">19</text><rect x="825.2998940699999" y="63.23256644179894" width="19.755580973999997" height="12.400782566137565" style="fill:none;stroke:black;stroke-width:1" /><text x="825.2998940699999" y="73.23256644179894" fill="black" style="font-size:10px;font-family:Arial">20</text><rect x="861.9993052799999" y="63.23413703703703" width="20.109717087" height="12.397651825396824" style="fill:none;stroke:black;stroke-width:1" /><text x="861.9993052799999" y="73.23413703703703" fill="black" style="font-size:10px;font-family:Arial">21</text><rect x="13.481673878999999" y="106.25599047619046" width="30.010638242999995" height="13.353010529100528" style="fill:none;stroke:black;stroke-width:1" /><text x="13.481673878999999" y="116.25599047619046" fill="black" style="font-size:10px;font-family:Arial">22</text><rect x="54.098469470999994" y="106.25599047619046" width="30.010638242999995" height="13.353010529100528" style="fill:none;stroke:black;stroke-width:1" /><text x="54.098469470999994" y="116.25599047619046" fill="black" style="font-size:10px;font-family:Arial">23</text><rect x="95.75781736199998" y="106.23867526455027" width="24.548441816999997" height="13.38764931216931" style="fill:none;stroke:black;stroke-width:1" /><text x="95.75781736199998" y="116.23867526455027" fill="black" style="font-size:10px;font-family:Arial">24</text><rect x="134.68606703999998" y="106.23867526455027" width="24.548441816999997" height="13.38764931216931" style="fill:none;stroke:black;stroke-width:1" /><text x="134.68606703999998" y="116.23867526455027" fill="black" style="font-size:10px;font-family:Arial">25</text><rect x="174.1198794" y="106.23867526455027" width="24.548441816999997" height="13.38764931216931" style="fill:none;stroke:black;stroke-width:1" /><text x="174.1198794" y="116.23867526455027" fill="black" style="font-size:10px;font-family:Arial">26</text><rect x="213.04813109999998" y="106.23867526455027" width="24.548441816999997" height="13.38764931216931" style="fill:none;stroke:black;stroke-width:1" /><text x="213.04813109999998" y="116.23867526455027" fill="black" style="font-size:10px;font-family:Arial">27</text><rect x="252.30725277" y="106.23867526455027" width="24.548441816999997" height="13.38764931216931" style="fill:none;stroke:black;stroke-width:1" /><text x="252.30725277" y="116.23867526455027" fill="black" style="font-size:10px;font-family:Arial">28</text><rect x="293.35460090999993" y="106.23867526455027" width="24.548441816999997" height="13.38764931216931" style="fill:none;stroke:black;stroke-width:1" /><text x="293.35460090999993" y="116.23867526455027" fill="black" style="font-size:10px;font-family:Arial">29</text><rect x="331.52096300999995" y="106.23867526455027" width="24.548441816999997" height="13.38764931216931" style="fill:none;stroke:black;stroke-width:1" /><text x="331.52096300999995" y="116.23867526455027" fill="black" style="font-size:10px;font-family:Arial">30</text><rect x="370.8947017499999" y="106.23867526455027" width="24.548441816999997" height="13.38764931216931" style="fill:none;stroke:black;stroke-width:1" /><text x="370.8947017499999" y="116.23867526455027" fill="black" style="font-size:10px;font-family:Arial">31</text><rect x="410.26842027" y="106.23867526455027" width="24.548441816999997" height="13.38764931216931" style="fill:none;stroke:black;stroke-width:1" /><text x="410.26842027" y="116.23867526455027" fill="black" style="font-size:10px;font-family:Arial">32</text><rect x="451.15190552999996" y="106.23867526455027" width="24.548441816999997" height="13.38764931216931" style="fill:none;stroke:black;stroke-width:1" /><text x="451.15190552999996" y="116.23867526455027" fill="black" style="font-size:10px;font-family:Arial">33</text><rect x="490.49722505999995" y="106.23867526455027" width="24.548441816999997" height="13.38764931216931" style="fill:none;stroke:black;stroke-width:1" /><text x="490.49722505999995" y="116.23867526455027" fill="black" style="font-size:10px;font-family:Arial">34</text><rect x="550.7175007199999" y="106.23867526455027" width="24.548441816999997" height="13.38764931216931" style="fill:none;stroke:black;stroke-width:1" /><text x="550.7175007199999" y="116.23867526455027" fill="black" style="font-size:10px;font-family:Arial">35</text><rect x="618.4664102999999" y="106.23867526455027" width="24.548441816999997" height="13.38764931216931" style="fill:none;stroke:black;stroke-width:1" /><text x="618.4664102999999" y="116.23867526455027" fill="black" style="font-size:10px;font-family:Arial">36</text><rect x="657.94243191" y="106.23867526455027" width="24.548441816999997" height="13.38764931216931" style="fill:none;stroke:black;stroke-width:1" /><text x="657.94243191" y="116.23867526455027" fill="black" style="font-size:10px;font-family:Arial">37</text><rect x="699.3846159899999" y="106.23867526455027" width="24.548441816999997" height="13.38764931216931" style="fill:none;stroke:black;stroke-width:1" /><text x="699.3846159899999" y="116.23867526455027" fill="black" style="font-size:10px;font-family:Arial">38</text><rect x="754.84022052" y="106.20206984126983" width="18.616571186999998" height="11.938468505291004" style="fill:none;stroke:black;stroke-width:1" /><text x="754.84022052" y="116.20206984126983" fill="black" style="font-size:10px;font-family:Arial">39</text><rect x="797.1113032799999" y="106.16782605820104" width="15.512034848999999" height="12.006948756613756" style="fill:none;stroke:black;stroke-width:1" /><text x="797.1113032799999" y="116.16782605820104" fill="black" style="font-size:10px;font-family:Arial">40</text><rect x="833.9412244799998" y="106.16404325396825" width="17.611421844" height="9.396399712962962" style="fill:none;stroke:black;stroke-width:1" /><text x="833.9412244799998" y="116.16404325396825" fill="black" style="font-size:10px;font-family:Arial">41</text><rect x="869.8898468699999" y="106.17094007936507" width="20.761658415" height="9.38258140079365" style="fill:none;stroke:black;stroke-width:1" /><text x="869.8898468699999" y="116.17094007936507" fill="black" style="font-size:10px;font-family:Arial">42</text><rect x="20.253103173" y="150.21593756613754" width="30.008430218999997" height="14.030849338624337" style="fill:none;stroke:black;stroke-width:1" /><text x="20.253103173" y="160.21593756613754" fill="black" style="font-size:10px;font-family:Arial">43</text><rect x="76.06407420299999" y="150.19774457671957" width="24.546635159999997" height="14.067245767195766" style="fill:none;stroke:black;stroke-width:1" /><text x="76.06407420299999" y="160.19774457671957" fill="black" style="font-size:10px;font-family:Arial">44</text><rect x="114.09598037999999" y="150.19774457671957" width="24.546635159999997" height="14.067245767195766" style="fill:none;stroke:black;stroke-width:1" /><text x="114.09598037999999" y="160.19774457671957" fill="black" style="font-size:10px;font-family:Arial">45</text><rect x="153.52690127999998" y="150.19774457671957" width="24.546635159999997" height="14.067245767195766" style="fill:none;stroke:black;stroke-width:1" /><text x="153.52690127999998" y="160.19774457671957" fill="black" style="font-size:10px;font-family:Arial">46</text><rect x="193.73809175999997" y="150.19774457671957" width="24.546635159999997" height="14.067245767195766" style="fill:none;stroke:black;stroke-width:1" /><text x="193.73809175999997" y="160.19774457671957" fill="black" style="font-size:10px;font-family:Arial">47</text><rect x="232.29335522999997" y="150.19774457671957" width="24.546635159999997" height="14.067245767195766" style="fill:none;stroke:black;stroke-width:1" /><text x="232.29335522999997" y="160.19774457671957" fill="black" style="font-size:10px;font-family:Arial">48</text><rect x="272.82628635" y="150.19774457671957" width="24.546635159999997" height="14.067245767195766" style="fill:none;stroke:black;stroke-width:1" /><text x="272.82628635" y="160.19774457671957" fill="black" style="font-size:10px;font-family:Arial">49</text><rect x="311.2379574899999" y="150.19774457671957" width="24.546635159999997" height="14.067245767195766" style="fill:none;stroke:black;stroke-width:1" /><text x="311.2379574899999" y="160.19774457671957" fill="black" style="font-size:10px;font-family:Arial">50</text><rect x="352.46838762" y="150.19774457671957" width="24.546635159999997" height="14.067245767195766" style="fill:none;stroke:black;stroke-width:1" /><text x="352.46838762" y="160.19774457671957" fill="black" style="font-size:10px;font-family:Arial">51</text><rect x="393.69881775" y="150.19774457671957" width="24.546635159999997" height="14.067245767195766" style="fill:none;stroke:black;stroke-width:1" /><text x="393.69881775" y="160.19774457671957" fill="black" style="font-size:10px;font-family:Arial">52</text><rect x="427.47549872999997" y="150.19774457671957" width="24.546635159999997" height="14.067245767195766" style="fill:none;stroke:black;stroke-width:1" /><text x="427.47549872999997" y="160.19774457671957" fill="black" style="font-size:10px;font-family:Arial">53</text><rect x="466.90640951999995" y="150.19774457671957" width="24.546635159999997" height="14.067245767195766" style="fill:none;stroke:black;stroke-width:1" /><text x="466.90640951999995" y="160.19774457671957" fill="black" style="font-size:10px;font-family:Arial">54</text><rect x="505.32630008999996" y="150.19774457671957" width="24.546635159999997" height="14.067245767195766" style="fill:none;stroke:black;stroke-width:1" /><text x="505.32630008999996" y="160.19774457671957" fill="black" style="font-size:10px;font-family:Arial">55</text><rect x="550.7733483599999" y="150.24549986772485" width="40.084207869" height="13.97173414021164" style="fill:none;stroke:black;stroke-width:1" /><text x="550.7733483599999" y="160.24549986772485" fill="black" style="font-size:10px;font-family:Arial">56</text><rect x="619.83062337" y="150.19774457671957" width="24.546635159999997" height="14.067245767195766" style="fill:none;stroke:black;stroke-width:1" /><text x="619.83062337" y="160.19774457671957" fill="black" style="font-size:10px;font-family:Arial">57</text><rect x="657.9227477399999" y="150.19774457671957" width="24.546635159999997" height="14.067245767195766" style="fill:none;stroke:black;stroke-width:1" /><text x="657.9227477399999" y="160.19774457671957" fill="black" style="font-size:10px;font-family:Arial">58</text><rect x="699.36189882" y="150.19774457671957" width="24.546635159999997" height="14.067245767195766" style="fill:none;stroke:black;stroke-width:1" /><text x="699.36189882" y="160.19774457671957" fill="black" style="font-size:10px;font-family:Arial">59</text><rect x="748.79106378" y="150.2393345238095" width="24.524473029" height="25.203291626984125" style="fill:none;stroke:black;stroke-width:1" /><text x="748.79106378" y="160.2393345238095" fill="black" style="font-size:10px;font-family:Arial">60</text><rect x="786.4602565199999" y="150.2393345238095" width="24.524473029" height="25.203291626984125" style="fill:none;stroke:black;stroke-width:1" /><text x="786.4602565199999" y="160.2393345238095" fill="black" style="font-size:10px;font-family:Arial">61</text><rect x="826.9634440199999" y="150.2393345238095" width="24.524473029" height="25.203291626984125" style="fill:none;stroke:black;stroke-width:1" /><text x="826.9634440199999" y="160.2393345238095" fill="black" style="font-size:10px;font-family:Arial">62</text><rect x="867.9868820099999" y="167.58498624338623" width="24.567594201" height="15.188201428571428" style="fill:none;stroke:black;stroke-width:1" /><text x="867.9868820099999" y="177.58498624338623" fill="black" style="font-size:10px;font-family:Arial">63</text><rect x="22.996626575999997" y="190.85170886243387" width="31.727981480999997" height="14.568223849206348" style="fill:none;stroke:black;stroke-width:1" /><text x="22.996626575999997" y="200.85170886243387" fill="black" style="font-size:10px;font-family:Arial">64</text><rect x="84.759906612" y="190.82721468253965" width="24.548658170999996" height="14.617188174603173" style="fill:none;stroke:black;stroke-width:1" /><text x="84.759906612" y="200.82721468253965" fill="black" style="font-size:10px;font-family:Arial">65</text><rect x="125.24640047999999" y="190.82721468253965" width="24.548658170999996" height="14.617188174603173" style="fill:none;stroke:black;stroke-width:1" /><text x="125.24640047999999" y="200.82721468253965" fill="black" style="font-size:10px;font-family:Arial">66</text><rect x="162.61711569" y="190.82721468253965" width="24.548658170999996" height="14.617188174603173" style="fill:none;stroke:black;stroke-width:1" /><text x="162.61711569" y="200.82721468253965" fill="black" style="font-size:10px;font-family:Arial">67</text><rect x="203.54231480999997" y="190.82721468253965" width="24.548658170999996" height="14.617188174603173" style="fill:none;stroke:black;stroke-width:1" /><text x="203.54231480999997" y="200.82721468253965" fill="black" style="font-size:10px;font-family:Arial">68</text><rect x="242.19816267" y="190.82721468253965" width="24.548658170999996" height="14.617188174603173" style="fill:none;stroke:black;stroke-width:1" /><text x="242.19816267" y="200.82721468253965" fill="black" style="font-size:10px;font-family:Arial">69</text><rect x="280.84171676999995" y="190.82721468253965" width="24.548658170999996" height="14.617188174603173" style="fill:none;stroke:black;stroke-width:1" /><text x="280.84171676999995" y="200.82721468253965" fill="black" style="font-size:10px;font-family:Arial">70</text><rect x="321.77919954" y="190.82721468253965" width="24.548658170999996" height="14.617188174603173" style="fill:none;stroke:black;stroke-width:1" /><text x="321.77919954" y="200.82721468253965" fill="black" style="font-size:10px;font-family:Arial">71</text><rect x="361.29735962999996" y="190.82721468253965" width="24.548658170999996" height="14.617188174603173" style="fill:none;stroke:black;stroke-width:1" /><text x="361.29735962999996" y="200.82721468253965" fill="black" style="font-size:10px;font-family:Arial">72</text><rect x="399.0663684" y="190.82721468253965" width="24.548658170999996" height="14.617188174603173" style="fill:none;stroke:black;stroke-width:1" /><text x="399.0663684" y="200.82721468253965" fill="black" style="font-size:10px;font-family:Arial">73</text><rect x="442.4656260599999" y="190.82721468253965" width="24.548658170999996" height="14.617188174603173" style="fill:none;stroke:black;stroke-width:1" /><text x="442.4656260599999" y="200.82721468253965" fill="black" style="font-size:10px;font-family:Arial">74</text><rect x="479.44386095999994" y="190.82721468253965" width="24.548658170999996" height="14.617188174603173" style="fill:none;stroke:black;stroke-width:1" /><text x="479.44386095999994" y="200.82721468253965" fill="black" style="font-size:10px;font-family:Arial">75</text><rect x="517.84735311" y="190.82721468253965" width="24.548658170999996" height="14.617188174603173" style="fill:none;stroke:black;stroke-width:1" /><text x="517.84735311" y="200.82721468253965" fill="black" style="font-size:10px;font-family:Arial">76</text><rect x="748.7856347099998" y="191.6247907407407" width="24.471518870999997" height="23.440610396825395" style="fill:none;stroke:black;stroke-width:1" /><text x="748.7856347099998" y="201.6247907407407" fill="black" style="font-size:10px;font-family:Arial">77</text><rect x="787.8711777899999" y="191.6247907407407" width="24.471518870999997" height="23.440610396825395" style="fill:none;stroke:black;stroke-width:1" /><text x="787.8711777899999" y="201.6247907407407" fill="black" style="font-size:10px;font-family:Arial">78</text><rect x="828.1048933499999" y="191.6247907407407" width="24.471518870999997" height="23.440610396825395" style="fill:none;stroke:black;stroke-width:1" /><text x="828.1048933499999" y="201.6247907407407" fill="black" style="font-size:10px;font-family:Arial">79</text><rect x="18.508705574999997" y="232.03960238095237" width="36.243754521" height="13.0169648015873" style="fill:none;stroke:black;stroke-width:1" /><text x="18.508705574999997" y="242.03960238095237" fill="black" style="font-size:10px;font-family:Arial">80</text><rect x="64.63210071299999" y="232.0033417989418" width="24.549485168999997" height="13.432421203703703" style="fill:none;stroke:black;stroke-width:1" /><text x="64.63210071299999" y="242.0033417989418" fill="black" style="font-size:10px;font-family:Arial">81</text><rect x="104.37954245999998" y="232.0033417989418" width="24.549485168999997" height="13.432421203703703" style="fill:none;stroke:black;stroke-width:1" /><text x="104.37954245999998" y="242.0033417989418" fill="black" style="font-size:10px;font-family:Arial">82</text><rect x="143.42990274" y="232.0033417989418" width="24.549485168999997" height="13.432421203703703" style="fill:none;stroke:black;stroke-width:1" /><text x="143.42990274" y="242.0033417989418" fill="black" style="font-size:10px;font-family:Arial">83</text><rect x="183.26162448" y="232.0033417989418" width="24.549485168999997" height="13.432421203703703" style="fill:none;stroke:black;stroke-width:1" /><text x="183.26162448" y="242.0033417989418" fill="black" style="font-size:10px;font-family:Arial">84</text><rect x="222.59568146999996" y="232.0033417989418" width="24.549485168999997" height="13.432421203703703" style="fill:none;stroke:black;stroke-width:1" /><text x="222.59568146999996" y="242.0033417989418" fill="black" style="font-size:10px;font-family:Arial">85</text><rect x="261.96053351999996" y="232.0033417989418" width="24.549485168999997" height="13.432421203703703" style="fill:none;stroke:black;stroke-width:1" /><text x="261.96053351999996" y="242.0033417989418" fill="black" style="font-size:10px;font-family:Arial">86</text><rect x="302.74574957999994" y="232.0033417989418" width="24.549485168999997" height="13.432421203703703" style="fill:none;stroke:black;stroke-width:1" /><text x="302.74574957999994" y="242.0033417989418" fill="black" style="font-size:10px;font-family:Arial">87</text><rect x="342.14926227" y="232.0033417989418" width="24.549485168999997" height="13.432421203703703" style="fill:none;stroke:black;stroke-width:1" /><text x="342.14926227" y="242.0033417989418" fill="black" style="font-size:10px;font-family:Arial">88</text><rect x="380.89283459999996" y="232.0033417989418" width="24.549485168999997" height="13.432421203703703" style="fill:none;stroke:black;stroke-width:1" /><text x="380.89283459999996" y="242.0033417989418" fill="black" style="font-size:10px;font-family:Arial">89</text><rect x="420.49658594999994" y="232.0033417989418" width="24.549485168999997" height="13.432421203703703" style="fill:none;stroke:black;stroke-width:1" /><text x="420.49658594999994" y="242.0033417989418" fill="black" style="font-size:10px;font-family:Arial">90</text><rect x="461.88032411999995" y="232.0033417989418" width="24.549485168999997" height="13.432421203703703" style="fill:none;stroke:black;stroke-width:1" /><text x="461.88032411999995" y="242.0033417989418" fill="black" style="font-size:10px;font-family:Arial">91</text><rect x="521.84223873" y="232.07058584656082" width="48.837870489" height="13.297931018518517" style="fill:none;stroke:black;stroke-width:1" /><text x="521.84223873" y="242.07058584656082" fill="black" style="font-size:10px;font-family:Arial">92</text><rect x="661.9403404199999" y="231.97620383597882" width="18.754894184999998" height="13.48669921957672" style="fill:none;stroke:black;stroke-width:1" /><text x="661.9403404199999" y="241.97620383597882" fill="black" style="font-size:10px;font-family:Arial">93</text><rect x="748.7894663999999" y="232.0574296296296" width="24.471926303999997" height="22.289937777777777" style="fill:none;stroke:black;stroke-width:1" /><text x="748.7894663999999" y="242.0574296296296" fill="black" style="font-size:10px;font-family:Arial">94</text><rect x="787.8756160799999" y="232.0574296296296" width="24.471926303999997" height="22.289927328042328" style="fill:none;stroke:black;stroke-width:1" /><text x="787.8756160799999" y="242.0574296296296" fill="black" style="font-size:10px;font-family:Arial">95</text><rect x="828.1100090099999" y="232.0574296296296" width="24.471926303999997" height="22.289927328042328" style="fill:none;stroke:black;stroke-width:1" /><text x="828.1100090099999" y="242.0574296296296" fill="black" style="font-size:10px;font-family:Arial">96</text><rect x="867.9852138599999" y="254.8306321428571" width="24.618415148999997" height="14.915684867724867" style="fill:none;stroke:black;stroke-width:1" /><text x="867.9852138599999" y="264.8306321428571" fill="black" style="font-size:10px;font-family:Arial">97</text><rect x="18.511013688" y="272.0219935185185" width="31.743829917" height="14.754841494708995" style="fill:none;stroke:black;stroke-width:1" /><text x="18.511013688" y="282.0219935185185" fill="black" style="font-size:10px;font-family:Arial">98</text><rect x="74.68017393" y="271.99718584656085" width="24.560922612" height="14.804432804232803" style="fill:none;stroke:black;stroke-width:1" /><text x="74.68017393" y="281.99718584656085" fill="black" style="font-size:10px;font-family:Arial">99</text><rect x="116.96495574" y="271.99718584656085" width="24.560922612" height="14.804432804232803" style="fill:none;stroke:black;stroke-width:1" /><text x="116.96495574" y="281.99718584656085" fill="black" style="font-size:10px;font-family:Arial">100</text><rect x="270.02761592999997" y="271.94976494708993" width="24.710167443" height="9.09447561111111" style="fill:none;stroke:black;stroke-width:1" /><text x="270.02761592999997" y="281.94976494708993" fill="black" style="font-size:10px;font-family:Arial">101</text><rect x="425.03738124" y="274.3679486772487" width="24.550482014999996" height="15.81276435185185" style="fill:none;stroke:black;stroke-width:1" /><text x="425.03738124" y="284.3679486772487" fill="black" style="font-size:10px;font-family:Arial">102</text><rect x="469.71619082999996" y="274.3679486772487" width="24.550482014999996" height="15.81276435185185" style="fill:none;stroke:black;stroke-width:1" /><text x="469.71619082999996" y="284.3679486772487" fill="black" style="font-size:10px;font-family:Arial">103</text><rect x="510.08158913999995" y="274.3679486772487" width="24.550482014999996" height="15.81276435185185" style="fill:none;stroke:black;stroke-width:1" /><text x="510.08158913999995" y="284.3679486772487" fill="black" style="font-size:10px;font-family:Arial">104</text><rect x="556.28207505" y="274.3862879629629" width="29.419535861999996" height="15.776101455026454" style="fill:none;stroke:black;stroke-width:1" /><text x="556.28207505" y="284.3862879629629" fill="black" style="font-size:10px;font-family:Arial">105</text><rect x="624.4987844399999" y="274.31612843915343" width="19.885353945" height="11.528532698412697" style="fill:none;stroke:black;stroke-width:1" /><text x="624.4987844399999" y="284.31612843915343" fill="black" style="font-size:10px;font-family:Arial">106</text><rect x="661.9271367599999" y="274.3228267195767" width="18.78122568" height="11.515134047619046" style="fill:none;stroke:black;stroke-width:1" /><text x="661.9271367599999" y="284.3228267195767" fill="black" style="font-size:10px;font-family:Arial">107</text><rect x="700.1390949599999" y="274.3171525132275" width="20.119155782999997" height="11.526545158730158" style="fill:none;stroke:black;stroke-width:1" /><text x="700.1390949599999" y="284.3171525132275" fill="black" style="font-size:10px;font-family:Arial">108</text><rect x="769.7850550499999" y="274.39959047619044" width="24.492458702999997" height="20.640362394179892" style="fill:none;stroke:black;stroke-width:1" /><text x="769.7850550499999" y="284.39959047619044" fill="black" style="font-size:10px;font-family:Arial">109</text><rect x="828.10044495" y="274.39959047619044" width="24.492458702999997" height="20.640362394179892" style="fill:none;stroke:black;stroke-width:1" /><text x="828.10044495" y="284.39959047619044" fill="black" style="font-size:10px;font-family:Arial">110</text></svg>