<svg xmlns="http://www.w3.org/2000/svg" xmlns:ns1="http://sodipodi.sourceforge.net/DTD/sodipodi-0.dtd" xmlns:ns2="http://www.inkscape.org/namespaces/inkscape" version="1.1" id="svg1" width="900" height="330" viewBox="0 0 900 330" ns1:docname="v1_keyboard_with_CLK.svg" ns2:version="1.4 (86a8ad7, 2024-10-11)" xml:space="preserve"><ns1:namedview id="namedview1" pagecolor="#ffffff" bordercolor="#000000" borderopacity="0.25" ns2:showpageshadow="2" ns2:pageopacity="0.0" ns2:pagecheckerboard="0" ns2:deskcolor="#d1d1d1" ns2:zoom="2.1433192" ns2:cx="351.09096" ns2:cy="182.66061" ns2:window-width="2880" ns2:window-height="1514" ns2:window-x="2869" ns2:window-y="-11" ns2:window-maximized="1" ns2:current-layer="layer1" /><defs id="defs1"><clipPath clipPathUnits="userSpaceOnUse" id="clipPath7" /></defs><g ns2:groupmode="layer" id="layer1" ns2:label="LED Vector Layer" /><rect style="fill:#ba3d41;stroke:black;stroke-width:1" id="rect1" width="64.279495" height="17.646008" x="412.1" y="18.8" ry="0" /><rect style="fill:#41a668;stroke:black;stroke-width:1" id="rect2" width="32.748291" height="13.020079" x="10.3" y="65.0" ry="0" /><rect style="fill:#3b54d3;stroke:black;stroke-width:1" id="rect3" width="29.54369" height="13.152528" x="80.10000000000001" y="65.0" ry="0" /><rect style="fill:#675f58;stroke:black;stroke-width:1" id="rect4" width="29.54369" height="13.152528" x="120.0" y="65.0" ry="0" /><rect style="fill:#c06962;stroke:black;stroke-width:1" id="rect5" width="29.54369" height="13.152528" x="160.10000000000002" y="65.0" ry="0" /><rect style="fill:#3da071;stroke:black;stroke-width:1" id="rect6" width="29.54369" height="13.152528" x="200.0" y="65.0" ry="0" /><rect style="fill:#3d52d3;stroke:black;stroke-width:1" id="rect7" width="29.54369" height="13.152528" x="262.0" y="65.0" ry="0" /><rect style="fill:#675f54;stroke:black;stroke-width:1" id="rect8" width="29.54369" height="13.152528" x="301.90000000000003" y="65.0" ry="0" /><rect style="fill:#b85d57;stroke:black;stroke-width:1" id="rect9" width="29.54369" height="13.152528" x="342.1" y="65.0" ry="0" /><rect style="fill:#428d68;stroke:black;stroke-width:1" id="rect10" width="29.54369" height="13.152528" x="382.0" y="65.0" ry="0" /><rect style="fill:#3549c5;stroke:black;stroke-width:1" id="rect11" width="29.54369" height="13.152528" x="442.6" y="65.0" ry="0" /><rect style="fill:#5c564d;stroke:black;stroke-width:1" id="rect12" width="29.54369" height="13.152528" x="482.5" y="65.0" ry="0" /><rect style="fill:#b35654;stroke:black;stroke-width:1" id="rect13" width="29.54369" height="13.152528" x="522.7" y="65.0" ry="0" /><rect style="fill:#2d9b5d;stroke:black;stroke-width:1" id="rect14" width="29.54369" height="13.152528" x="562.6" y="65.0" ry="0" /><rect style="fill:#344dbc;stroke:black;stroke-width:1" id="rect15" width="29.54369" height="13.152528" x="609.6" y="65.0" ry="0" /><rect style="fill:#5e5248;stroke:black;stroke-width:1" id="rect16" width="29.54369" height="13.152528" x="649.8000000000001" y="65.0" ry="0" /><rect style="fill:#b3524f;stroke:black;stroke-width:1" id="rect17" width="29.54369" height="13.152528" x="689.6" y="65.0" ry="0" /><rect style="fill:#139d4a;stroke:black;stroke-width:1" id="rect18" width="18.753563" height="11.873909" x="740.2" y="66.2" ry="0" /><rect style="fill:#0a17ad;stroke:black;stroke-width:1" id="rect19" width="20.567762" height="11.858371" x="777.8000000000001" y="66.3" ry="0" /><rect style="fill:#252522;stroke:black;stroke-width:1" id="rect20" width="19.540634" height="11.867078" x="816.3000000000001" y="66.3" ry="0" /><rect style="fill:#aa1d33;stroke:black;stroke-width:1" id="rect21" width="19.890917" height="11.864082" x="852.6" y="66.3" ry="0" /><rect style="fill:#5a5345;stroke:black;stroke-width:1" id="rect22" width="15.343259" height="11.490194" x="788.4000000000001" y="107.30000000000001" ry="0" /><rect style="fill:#b25650;stroke:black;stroke-width:1" id="rect23" width="17.419804" height="8.9919977" x="824.9000000000001" y="107.30000000000001" ry="0" /><rect style="fill:#32894d;stroke:black;stroke-width:1" id="rect24" width="20.535765" height="8.9787741" x="860.4000000000001" y="107.30000000000001" ry="0" /><rect style="fill:#469d6f;stroke:black;stroke-width:1" id="rect25" width="29.684113" height="12.778324" x="13.3" y="107.4" ry="0" /><rect style="fill:#3c58c5;stroke:black;stroke-width:1" id="rect26" width="29.684113" height="12.778324" x="53.5" y="107.4" ry="0" /><rect style="fill:#645b59;stroke:black;stroke-width:1" id="rect27" width="24.281347" height="12.811472" x="94.7" y="107.4" ry="0" /><rect style="fill:#b4665e;stroke:black;stroke-width:1" id="rect28" width="24.281347" height="12.811472" x="133.20000000000002" y="107.4" ry="0" /><rect style="fill:#3dab6e;stroke:black;stroke-width:1" id="rect29" width="24.281347" height="12.811472" x="172.20000000000002" y="107.4" ry="0" /><rect style="fill:#3658c6;stroke:black;stroke-width:1" id="rect30" width="24.281347" height="12.811472" x="210.70000000000002" y="107.4" ry="0" /><rect style="fill:#645955;stroke:black;stroke-width:1" id="rect31" width="24.281347" height="12.811472" x="249.60000000000002" y="107.4" ry="0" /><rect style="fill:#bd625c;stroke:black;stroke-width:1" id="rect32" width="24.281347" height="12.811472" x="290.2" y="107.4" ry="0" /><rect style="fill:#37a96e;stroke:black;stroke-width:1" id="rect33" width="24.281347" height="12.811472" x="327.90000000000003" y="107.4" ry="0" /><rect style="fill:#314fc0;stroke:black;stroke-width:1" id="rect34" width="24.281347" height="12.811472" x="366.90000000000003" y="107.4" ry="0" /><rect style="fill:#605652;stroke:black;stroke-width:1" id="rect35" width="24.281347" height="12.811472" x="405.8" y="107.4" ry="0" /><rect style="fill:#a7625c;stroke:black;stroke-width:1" id="rect36" width="24.281347" height="12.811472" x="446.20000000000005" y="107.4" ry="0" /><rect style="fill:#3d9862;stroke:black;stroke-width:1" id="rect37" width="24.281347" height="12.811472" x="485.20000000000005" y="107.4" ry="0" /><rect style="fill:#3048b0;stroke:black;stroke-width:1" id="rect38" width="24.281347" height="12.811472" x="544.7" y="107.4" ry="0" /><rect style="fill:#62564b;stroke:black;stroke-width:1" id="rect39" width="24.281347" height="12.811472" x="611.7" y="107.4" ry="0" /><rect style="fill:#b75753;stroke:black;stroke-width:1" id="rect40" width="24.281347" height="12.811472" x="650.8000000000001" y="107.4" ry="0" /><rect style="fill:#369b5a;stroke:black;stroke-width:1" id="rect41" width="24.281347" height="12.811472" x="691.8000000000001" y="107.4" ry="0" /><rect style="fill:#3249c3;stroke:black;stroke-width:1" id="rect42" width="18.414017" height="11.424661" x="746.6" y="107.4" ry="0" /><rect style="fill:#4a5ed2;stroke:black;stroke-width:1" id="rect43" width="29.681929" height="13.42699" x="20.0" y="149.5" ry="0" /><rect style="fill:#6d605e;stroke:black;stroke-width:1" id="rect44" width="24.27956" height="13.46182" x="75.2" y="149.5" ry="0" /><rect style="fill:#cd6963;stroke:black;stroke-width:1" id="rect45" width="24.27956" height="13.46182" x="112.9" y="149.5" ry="0" /><rect style="fill:#3ab979;stroke:black;stroke-width:1" id="rect46" width="24.27956" height="13.46182" x="151.9" y="149.5" ry="0" /><rect style="fill:#2e59d3;stroke:black;stroke-width:1" id="rect47" width="24.27956" height="13.46182" x="191.60000000000002" y="149.5" ry="0" /><rect style="fill:#6d6162;stroke:black;stroke-width:1" id="rect48" width="24.27956" height="13.46182" x="229.8" y="149.5" ry="0" /><rect style="fill:#c76b63;stroke:black;stroke-width:1" id="rect49" width="24.27956" height="13.46182" x="269.90000000000003" y="149.5" ry="0" /><rect style="fill:#37b07d;stroke:black;stroke-width:1" id="rect50" width="24.27956" height="13.46182" x="307.90000000000003" y="149.5" ry="0" /><rect style="fill:#3b58bc;stroke:black;stroke-width:1" id="rect51" width="24.27956" height="13.46182" x="348.6" y="149.5" ry="0" /><rect style="fill:#6a5c5c;stroke:black;stroke-width:1" id="rect52" width="24.27956" height="13.46182" x="389.40000000000003" y="149.5" ry="0" /><rect style="fill:#cb655e;stroke:black;stroke-width:1" id="rect53" width="24.27956" height="13.46182" x="422.8" y="149.5" ry="0" /><rect style="fill:#409e6d;stroke:black;stroke-width:1" id="rect54" width="24.27956" height="13.46182" x="461.8" y="149.5" ry="0" /><rect style="fill:#3a56b9;stroke:black;stroke-width:1" id="rect55" width="24.27956" height="13.46182" x="499.8" y="149.5" ry="0" /><rect style="fill:#54514e;stroke:black;stroke-width:1" id="rect56" width="39.648079" height="13.370419" x="544.8000000000001" y="149.5" ry="0" /><rect style="fill:#c15f5a;stroke:black;stroke-width:1" id="rect57" width="24.27956" height="13.46182" x="613.1" y="149.5" ry="0" /><rect style="fill:#36af67;stroke:black;stroke-width:1" id="rect58" width="24.27956" height="13.46182" x="650.8000000000001" y="149.5" ry="0" /><rect style="fill:#304fca;stroke:black;stroke-width:1" id="rect59" width="24.27956" height="13.46182" x="691.8000000000001" y="149.5" ry="0" /><rect style="fill:#66554c;stroke:black;stroke-width:1" id="rect60" width="24.257639" height="24.118593" x="740.6" y="149.5" ry="0" /><rect style="fill:#b15b56;stroke:black;stroke-width:1" id="rect61" width="24.257639" height="24.118593" x="777.9000000000001" y="149.5" ry="0" /><rect style="fill:#369365;stroke:black;stroke-width:1" id="rect62" width="24.257639" height="24.118593" x="818.0" y="149.5" ry="0" /><rect style="fill:#2245c8;stroke:black;stroke-width:1" id="rect63" width="24.300291" height="14.534532" x="858.5" y="166.10000000000002" ry="0" /><rect style="fill:#786c64;stroke:black;stroke-width:1" id="rect64" width="31.382771" height="13.941237" x="22.700000000000003" y="188.4" ry="0" /><rect style="fill:#cf6f6a;stroke:black;stroke-width:1" id="rect65" width="24.281561" height="13.988094" x="83.80000000000001" y="188.4" ry="0" /><rect style="fill:#41bc83;stroke:black;stroke-width:1" id="rect66" width="24.281561" height="13.988094" x="123.9" y="188.4" ry="0" /><rect style="fill:#3e5dc7;stroke:black;stroke-width:1" id="rect67" width="24.281561" height="13.988094" x="160.8" y="188.4" ry="0" /><rect style="fill:#70666a;stroke:black;stroke-width:1" id="rect68" width="24.281561" height="13.988094" x="201.3" y="188.4" ry="0" /><rect style="fill:#cf6e67;stroke:black;stroke-width:1" id="rect69" width="24.281561" height="13.988094" x="239.60000000000002" y="188.4" ry="0" /><rect style="fill:#3cb986;stroke:black;stroke-width:1" id="rect70" width="24.281561" height="13.988094" x="277.8" y="188.4" ry="0" /><rect style="fill:#4965b6;stroke:black;stroke-width:1" id="rect71" width="24.281561" height="13.988094" x="318.3" y="188.4" ry="0" /><rect style="fill:#6f6469;stroke:black;stroke-width:1" id="rect72" width="24.281561" height="13.988094" x="357.40000000000003" y="188.4" ry="0" /><rect style="fill:#b96a65;stroke:black;stroke-width:1" id="rect73" width="24.281561" height="13.988094" x="394.70000000000005" y="188.4" ry="0" /><rect style="fill:#578368;stroke:black;stroke-width:1" id="rect74" width="24.281561" height="13.988094" x="437.70000000000005" y="188.4" ry="0" /><rect style="fill:#375fce;stroke:black;stroke-width:1" id="rect75" width="24.281561" height="13.988094" x="474.20000000000005" y="188.4" ry="0" /><rect style="fill:#5c5c60;stroke:black;stroke-width:1" id="rect76" width="24.281561" height="13.988094" x="512.2" y="188.4" ry="0" /><rect style="fill:#b8635d;stroke:black;stroke-width:1" id="rect77" width="24.205261" height="22.431774" x="740.6" y="189.10000000000002" ry="0" /><rect style="fill:#2ab871;stroke:black;stroke-width:1" id="rect78" width="24.205261" height="22.431774" x="779.3000000000001" y="189.10000000000002" ry="0" /><rect style="fill:#2747c2;stroke:black;stroke-width:1" id="rect79" width="24.205261" height="22.431774" x="819.1" y="189.10000000000002" ry="0" /><rect style="fill:#d06266;stroke:black;stroke-width:1" id="rect80" width="18.550835" height="12.906259" x="654.7" y="227.70000000000002" ry="0" /><rect style="fill:#7a7465;stroke:black;stroke-width:1" id="rect81" width="35.849411" height="12.456741" x="18.3" y="227.8" ry="0" /><rect style="fill:#bb726f;stroke:black;stroke-width:1" id="rect82" width="24.282379" height="12.854317" x="63.900000000000006" y="227.8" ry="0" /><rect style="fill:#48bb89;stroke:black;stroke-width:1" id="rect83" width="24.282379" height="12.854317" x="103.2" y="227.8" ry="0" /><rect style="fill:#3a5ccf;stroke:black;stroke-width:1" id="rect84" width="24.282379" height="12.854317" x="141.9" y="227.8" ry="0" /><rect style="fill:#716a6b;stroke:black;stroke-width:1" id="rect85" width="24.282379" height="12.854317" x="181.3" y="227.8" ry="0" /><rect style="fill:#ce716b;stroke:black;stroke-width:1" id="rect86" width="24.282379" height="12.854317" x="220.20000000000002" y="227.8" ry="0" /><rect style="fill:#3dc784;stroke:black;stroke-width:1" id="rect87" width="24.282379" height="12.854317" x="259.1" y="227.8" ry="0" /><rect style="fill:#3856d0;stroke:black;stroke-width:1" id="rect88" width="24.282379" height="12.854317" x="299.5" y="227.8" ry="0" /><rect style="fill:#6f6769;stroke:black;stroke-width:1" id="rect89" width="24.282379" height="12.854317" x="338.40000000000003" y="227.8" ry="0" /><rect style="fill:#bf746a;stroke:black;stroke-width:1" id="rect90" width="24.282379" height="12.854317" x="376.70000000000005" y="227.8" ry="0" /><rect style="fill:#4bac7d;stroke:black;stroke-width:1" id="rect91" width="24.282379" height="12.854317" x="415.90000000000003" y="227.8" ry="0" /><rect style="fill:#4161c1;stroke:black;stroke-width:1" id="rect92" width="24.282379" height="12.854317" x="456.90000000000003" y="227.8" ry="0" /><rect style="fill:#69625a;stroke:black;stroke-width:1" id="rect93" width="48.306499" height="12.725615" x="516.2" y="227.8" ry="0" /><rect style="fill:#528d61;stroke:black;stroke-width:1" id="rect94" width="24.205664" height="21.330624" x="740.6" y="227.8" ry="0" /><rect style="fill:#3c53be;stroke:black;stroke-width:1" id="rect95" width="24.205664" height="21.330614" x="779.3000000000001" y="227.8" ry="0" /><rect style="fill:#575d54;stroke:black;stroke-width:1" id="rect96" width="24.205664" height="21.330614" x="819.1" y="227.8" ry="0" /><rect style="fill:#b9504d;stroke:black;stroke-width:1" id="rect97" width="24.350559" height="14.273744" x="858.5" y="249.60000000000002" ry="0" /><rect style="fill:#3752d2;stroke:black;stroke-width:1" id="rect98" width="24.293692" height="14.16728" x="73.9" y="266.0" ry="0" /><rect style="fill:#61676b;stroke:black;stroke-width:1" id="rect99" width="24.293692" height="14.16728" x="115.7" y="266.0" ry="0" /><rect style="fill:#bd7068;stroke:black;stroke-width:1" id="rect100" width="24.441313" height="8.7030678" x="267.1" y="266.0" ry="0" /><rect style="fill:#46a671;stroke:black;stroke-width:1" id="rect101" width="31.398447" height="14.119823" x="18.3" y="266.1" ry="0" /><rect style="fill:#31b383;stroke:black;stroke-width:1" id="rect102" width="24.283365" height="15.132215" x="420.40000000000003" y="268.3" ry="0" /><rect style="fill:#2949d7;stroke:black;stroke-width:1" id="rect103" width="24.283365" height="15.132215" x="464.6" y="268.3" ry="0" /><rect style="fill:#68625d;stroke:black;stroke-width:1" id="rect104" width="24.283365" height="15.132215" x="504.5" y="268.3" ry="0" /><rect style="fill:#bd625f;stroke:black;stroke-width:1" id="rect105" width="29.099442" height="15.09713" x="550.2" y="268.3" ry="0" /><rect style="fill:#2cc283;stroke:black;stroke-width:1" id="rect106" width="19.668995" height="11.032368" x="617.7" y="268.3" ry="0" /><rect style="fill:#2e50cd;stroke:black;stroke-width:1" id="rect107" width="18.57688" height="11.019546" x="654.7" y="268.3" ry="0" /><rect style="fill:#5f5d5b;stroke:black;stroke-width:1" id="rect108" width="19.900253" height="11.030466" x="692.5" y="268.3" ry="0" /><rect style="fill:#c45d5a;stroke:black;stroke-width:1" id="rect109" width="24.225973" height="19.752043" x="761.4000000000001" y="268.3" ry="0" /><rect style="fill:#4d7e53;stroke:black;stroke-width:1" id="rect110" width="24.225973" height="19.752043" x="819.1" y="268.3" ry="0" /></svg>